<?xml version="1.0" encoding="UTF-8" standalone="no"?>
<svg width="85px" height="108px" viewBox="0 0 85 108" version="1.1" xmlns="http://www.w3.org/2000/svg" xmlns:xlink="http://www.w3.org/1999/xlink">
    <!-- Generator: Sketch 41.2 (35397) - http://www.bohemiancoding.com/sketch -->
    <title>Martini</title>
    <desc>Created with Sketch.</desc>
    <defs></defs>
    <g id="Page-1" stroke="none" stroke-width="1" fill="none" fill-rule="evenodd">
        <g id="Martini" transform="translate(0.000000, -1.000000)">
            <polygon id="Shape" fill="#F1F9FE" points="43 77 3 27 83 27"></polygon>
            <polygon id="Shape" fill="#D0D3C6" points="71 39 15 39 43 77"></polygon>
            <path d="M62.6,29 C62.2,29 61.9,28.9 61.5,28.7 C60.6,28.1 60.3,26.9 60.9,25.9 L76.3,1.9 C76.9,1 78.1,0.7 79.1,1.3 C80,1.9 80.3,3.1 79.7,4.1 L64.3,28.1 C63.9,28.7 63.3,29 62.6,29 Z" id="Shape" fill="#62345B"></path>
            <g id="Group" opacity="0.5" transform="translate(35.000000, 24.000000)" fill="#62345B">
                <path d="M3,43.3 C2.6,43.3 2.3,43.2 1.9,43 C1,42.4 0.7,41.2 1.3,40.2 L25.9,1.9 C26.5,1 27.7,0.7 28.7,1.3 C29.6,1.9 29.9,3.1 29.3,4.1 L4.7,42.4 C4.3,43 3.7,43.3 3,43.3 Z" id="Shape"></path>
            </g>
            <path d="M43,109 C41.9,109 41,108.1 41,107 L41,77 C41,75.9 41.9,75 43,75 C44.1,75 45,75.9 45,77 L45,107 C45,108.1 44.1,109 43,109 Z" id="Shape" fill="#62345B"></path>
            <path d="M63,109 L23,109 C21.9,109 21,108.1 21,107 C21,105.9 21.9,105 23,105 L63,105 C64.1,105 65,105.9 65,107 C65,108.1 64.1,109 63,109 Z" id="Shape" fill="#62345B"></path>
            <circle id="Oval" fill="#CCCC63" cx="44" cy="52.5" r="10"></circle>
            <circle id="Oval" fill="#F16465" cx="37.3" cy="52.5" r="3.3"></circle>
            <path d="M43,79 C42.4,79 41.8,78.7 41.4,78.2 L1.4,28.2 C0.9,27.6 0.8,26.8 1.2,26.1 C1.6,25.4 2.2,25 3,25 L83,25 C83.8,25 84.5,25.4 84.8,26.1 C85.1,26.8 85,27.6 84.6,28.2 L44.6,78.2 C44.2,78.7 43.6,79 43,79 Z M7.2,29 L43,73.8 L78.8,29 L7.2,29 Z" id="Shape" fill="#62345B"></path>
        </g>
    </g>
</svg>