<?xml version="1.0" ?><!DOCTYPE svg  PUBLIC '-//W3C//DTD SVG 1.1//EN'  'http://www.w3.org/Graphics/SVG/1.1/DTD/svg11.dtd'><svg enable-background="new 0 0 128 128" id="Слой_1" version="1.1" viewBox="0 0 128 128" xml:space="preserve" xmlns="http://www.w3.org/2000/svg" xmlns:xlink="http://www.w3.org/1999/xlink"><g><g><path d="M116.3,44c0,11-9,20-20,20l0.7-20.3L76.3,44c0-11,9-20,20-20S116.3,32.9,116.3,44z" fill="#E5DC35"/></g><g><path d="M96.3,66c-1.1,0-2-0.9-2-2s0.9-2,2-2c9.9,0,18-8.1,18-18s-8.1-18-18-18s-18,8.1-18,18c0,1.1-0.9,2-2,2    s-2-0.9-2-2c0-12.1,9.9-22,22-22s22,9.9,22,22S108.5,66,96.3,66z" fill="#62345B"/></g><g><g opacity="0.7"><path d="M91.6,37.4l-4.1-4.1c-0.9-0.9-0.7-2.5,0.4-3.2c1.4-0.8,3-1.5,4.6-1.9c1.3-0.3,2.5,0.6,2.5,1.9V36     C95,37.7,92.9,38.6,91.6,37.4z" fill="#FFFFFF"/></g><g opacity="0.7"><path d="M97.7,36l0-5.8c0-1.3,1.2-2.3,2.5-1.9c1.6,0.4,3.2,1.1,4.6,1.9c1.1,0.7,1.3,2.2,0.4,3.1l-4.1,4.1     C99.8,38.6,97.7,37.7,97.7,36z" fill="#FFFFFF"/></g><g opacity="0.7"><path d="M103,39.3l4.1-4.1c0.9-0.9,2.5-0.7,3.2,0.4c0.8,1.4,1.5,3,1.9,4.6c0.3,1.3-0.6,2.5-1.9,2.5h-5.8     C102.6,42.7,101.7,40.5,103,39.3z" fill="#FFFFFF"/></g><g opacity="0.7"><path d="M104.4,45.3l5.8,0c1.3,0,2.3,1.2,1.9,2.5c-0.4,1.6-1.1,3.2-1.9,4.6c-0.7,1.1-2.2,1.3-3.1,0.4l-4.1-4.1     C101.7,47.5,102.6,45.3,104.4,45.3z" fill="#FFFFFF"/></g><g opacity="0.7"><path d="M101.1,50.6l4.1,4.1c0.9,0.9,0.7,2.5-0.4,3.2c-1.4,0.8-3,1.5-4.6,1.9c-1.3,0.3-2.5-0.6-2.5-1.9V52     C97.7,50.2,99.8,49.3,101.1,50.6z" fill="#FFFFFF"/></g><g opacity="0.7"><path d="M88.3,42.7l-5.8,0c-1.3,0-2.3-1.2-1.9-2.5c0.4-1.6,1.1-3.2,1.9-4.6c0.7-1.1,2.2-1.3,3.1-0.4l4.1,4.1     C91,40.5,90.1,42.7,88.3,42.7z" fill="#FFFFFF"/></g></g></g><g><rect fill="#EAF3FB" height="70" width="60" x="36.3" y="44"/></g><g><path d="M86.3,94h-40c-5.5,0-10-4.5-10-10V44h60v40C96.3,89.5,91.9,94,86.3,94z" fill="#D8D7D1"/></g><g opacity="0.2"><g><rect fill="#62345B" height="70" width="11" x="85.3" y="44"/></g></g><g opacity="0.7"><path d="M46.3,71.7c-1.1,0-2-0.9-2-2v-26c0-1.1,0.9-2,2-2s2,0.9,2,2v26C48.3,70.8,47.4,71.7,46.3,71.7z" fill="#FFFFFF"/></g><g><path d="M96.3,116h-60c-1.1,0-2-0.9-2-2V44c0-1.1,0.9-2,2-2h60c1.1,0,2,0.9,2,2v70C98.3,115.1,97.5,116,96.3,116z    M38.3,112h56V46h-56V112z" fill="#62345B"/></g><g><g opacity="0.7"><circle cx="82.4" cy="71" fill="#FFFFFF" r="3"/></g><g opacity="0.7"><circle cx="82.4" cy="81" fill="#FFFFFF" r="3"/></g><g opacity="0.7"><circle cx="72.4" cy="81" fill="#FFFFFF" r="3"/></g></g></svg>