<?xml version="1.0" encoding="UTF-8" standalone="no"?>
<svg width="102px" height="101px" viewBox="0 0 102 101" version="1.1" xmlns="http://www.w3.org/2000/svg" xmlns:xlink="http://www.w3.org/1999/xlink">
    <!-- Generator: Sketch 41.2 (35397) - http://www.bohemiancoding.com/sketch -->
    <title>martiniSweet</title>
    <desc>Created with Sketch.</desc>
    <defs></defs>
    <g id="Page-1" stroke="none" stroke-width="1" fill="none" fill-rule="evenodd">
        <g id="martiniSweet">
            <polygon id="Shape" fill="#F1F9FE" points="41.4 70.2 79.8 22.1 2.9 22.1"></polygon>
            <g id="Group" transform="translate(58.000000, 0.000000)">
                <circle id="Oval" fill="#E5DC35" cx="21.8" cy="22.1" r="19.2"></circle>
                <path d="M21.9,43.3 C10.2,43.3 0.7,33.8 0.7,22.1 C0.7,10.4 10.2,0.9 21.9,0.9 C33.6,0.9 43.1,10.4 43.1,22.1 C43.1,33.8 33.6,43.3 21.9,43.3 Z M21.9,4.8 C12.4,4.8 4.7,12.5 4.7,22 C4.7,31.5 12.4,39.2 21.9,39.2 C31.4,39.2 39.1,31.5 39.1,22 C39.1,12.5 31.4,4.8 21.9,4.8 Z" id="Shape" fill="#62345B"></path>
                <g transform="translate(6.000000, 6.000000)" id="Shape" fill="#FFFFFF" opacity="0.7">
                    <g transform="translate(11.000000, 0.000000)">
                        <path d="M3.1,8.5 L1,3.3 C0.5,2.1 1.3,0.8 2.5,0.6 C4.1,0.4 5.7,0.4 7.3,0.6 C8.6,0.8 9.3,2.1 8.8,3.3 L6.7,8.5 C6,10 3.7,10 3.1,8.5 Z"></path>
                    </g>
                    <g transform="translate(19.000000, 2.000000)">
                        <path d="M1,7.4 L3.1,2.2 C3.6,1 5,0.6 6,1.4 C7.3,2.4 8.4,3.5 9.4,4.8 C10.2,5.8 9.8,7.3 8.6,7.7 L3.4,9.8 C1.9,10.6 0.3,9 1,7.4 Z"></path>
                    </g>
                    <g transform="translate(22.000000, 12.000000)">
                        <path d="M1.5,2.3 L6.7,0.2 C7.9,-0.3 9.2,0.5 9.4,1.7 C9.6,3.3 9.6,4.9 9.4,6.5 C9.2,7.8 7.9,8.5 6.7,8 L1.5,5.9 C-0.1,5.2 -0.1,3 1.5,2.3 Z"></path>
                    </g>
                    <g transform="translate(19.000000, 20.000000)">
                        <path d="M3.5,0.2 L8.7,2.3 C9.9,2.8 10.3,4.2 9.5,5.2 C8.5,6.5 7.4,7.6 6.1,8.6 C5.1,9.4 3.6,9 3.2,7.8 L1.1,2.6 C0.3,1.1 1.9,-0.4 3.5,0.2 Z"></path>
                    </g>
                    <g transform="translate(11.000000, 22.000000)">
                        <path d="M6.6,1.7 L8.7,6.9 C9.2,8.1 8.4,9.4 7.2,9.6 C5.6,9.8 4,9.8 2.4,9.6 C1.1,9.4 0.4,8.1 0.9,6.9 L3,1.7 C3.7,0.1 6,0.1 6.6,1.7 Z"></path>
                    </g>
                    <g transform="translate(2.000000, 20.000000)">
                        <path d="M9.7,2.7 L7.6,7.9 C7.1,9.1 5.7,9.5 4.7,8.7 C3.4,7.7 2.3,6.6 1.3,5.3 C0.5,4.3 0.9,2.8 2.1,2.4 L7.3,0.3 C8.8,-0.4 10.4,1.1 9.7,2.7 Z"></path>
                    </g>
                    <g transform="translate(0.000000, 12.000000)">
                        <path d="M8.2,5.9 L3,8 C1.8,8.5 0.5,7.7 0.3,6.5 C0.1,4.9 0.1,3.3 0.3,1.7 C0.5,0.4 1.8,-0.3 3,0.2 L8.2,2.3 C9.8,3 9.8,5.2 8.2,5.9 Z"></path>
                    </g>
                    <g transform="translate(2.000000, 3.000000)">
                        <path d="M7.2,8.9 L2,6.8 C0.8,6.3 0.4,4.9 1.2,3.9 C2.2,2.6 3.3,1.5 4.6,0.5 C5.6,-0.3 7.1,0.1 7.5,1.3 L9.6,6.5 C10.4,8 8.8,9.6 7.2,8.9 Z"></path>
                    </g>
                </g>
            </g>
            <polygon id="Shape" fill="#D0D3C6" points="14.5 37.4 68.3 37.4 41.4 70.2"></polygon>
            <path d="M41.4,101 C40.3,101 39.4,100.1 39.4,99 L39.4,70.2 C39.4,69.1 40.3,68.2 41.4,68.2 C42.5,68.2 43.4,69.1 43.4,70.2 L43.4,99 C43.4,100.1 42.5,101 41.4,101 Z" id="Shape" fill="#62345B"></path>
            <path d="M60.6,101 L22.2,101 C21.1,101 20.2,100.1 20.2,99 C20.2,97.9 21.1,97 22.2,97 L60.7,97 C61.8,97 62.7,97.9 62.7,99 C62.7,100.1 61.7,101 60.6,101 Z" id="Shape" fill="#62345B"></path>
            <path d="M41.4,72.2 C40.8,72.2 40.2,71.9 39.8,71.4 L1.4,23.3 C0.9,22.7 0.8,21.9 1.2,21.2 C1.6,20.5 2.2,20.1 3,20.1 L79.9,20.1 C80.7,20.1 81.4,20.5 81.7,21.2 C82,21.9 81.9,22.7 81.5,23.3 L42.9,71.4 C42.6,71.9 42,72.2 41.4,72.2 Z M7.1,24.1 L41.4,67 L75.7,24.1 L7.1,24.1 Z" id="Shape" fill="#62345B"></path>
        </g>
    </g>
</svg>