<?xml version="1.0" encoding="UTF-8" standalone="no"?>
<svg width="74px" height="84px" viewBox="0 0 74 84" version="1.1" xmlns="http://www.w3.org/2000/svg" xmlns:xlink="http://www.w3.org/1999/xlink">
    <!-- Generator: Sketch 41.2 (35397) - http://www.bohemiancoding.com/sketch -->
    <title>lowballIce</title>
    <desc>Created with Sketch.</desc>
    <defs></defs>
    <g id="Page-1" stroke="none" stroke-width="1" fill="none" fill-rule="evenodd">
        <g id="lowballIce">
            <g id="Group">
                <path d="M65.5,82 L8.5,82 C5.4,82 2.8,79.5 2.8,76.3 L2.8,2.3 L71.1,2.3 L71.1,76.3 C71.2,79.5 68.6,82 65.5,82 Z" id="Shape" fill="#EAF3FB"></path>
                <path d="M59.8,59.2 L14.2,59.2 C7.9,59.2 2.8,54.1 2.8,47.8 L2.8,13.7 L71.1,13.7 L71.1,47.9 C71.2,54.1 66.1,59.2 59.8,59.2 Z" id="Shape" fill="#D0D3C6"></path>
                <g opacity="0.2" transform="translate(58.000000, 2.000000)" id="Shape" fill="#62345B">
                    <g>
                        <path d="M0.6,0.3 L0.6,80 L7.4,80 C10.5,80 13.1,77.5 13.1,74.3 L13.1,0.3 L0.6,0.3 L0.6,0.3 Z"></path>
                    </g>
                </g>
                <g opacity="0.7" transform="translate(9.000000, 0.000000)" id="Shape" fill="#FFFFFF">
                    <path d="M2.9,31.3 C1.8,31.3 0.9,30.4 0.9,29.3 L0.9,2 C0.9,0.9 1.8,0 2.9,0 C4,0 4.9,0.9 4.9,2 L4.9,29.3 C4.9,30.4 4,31.3 2.9,31.3 Z"></path>
                </g>
                <path d="M65.5,84 L8.5,84 C4.3,84 0.8,80.5 0.8,76.3 L0.8,2.3 C0.8,1.2 1.7,0.3 2.8,0.3 L71.1,0.3 C72.2,0.3 73.1,1.2 73.1,2.3 L73.1,76.3 C73.2,80.5 69.7,84 65.5,84 Z M4.8,4.3 L4.8,76.3 C4.8,78.3 6.5,80 8.5,80 L65.4,80 C67.4,80 69.1,78.3 69.1,76.3 L69.1,4.3 L4.8,4.3 L4.8,4.3 Z" id="Shape" fill="#62345B"></path>
                <g opacity="0.5" transform="translate(15.000000, 30.000000)" id="Shape" fill="#FFFFFF">
                    <path d="M8.8,26 L1.8,17 C-0.1,14.5 0.3,10.9 2.8,9 L11.8,2 C14.3,0.1 17.9,0.5 19.8,3 L26.8,12 C28.7,14.5 28.3,18.1 25.8,20 L16.8,27 C14.3,28.9 10.7,28.5 8.8,26 Z"></path>
                </g>
                <g opacity="0.5" transform="translate(24.000000, 6.000000)" id="Shape" fill="#FFFFFF">
                    <path d="M0.6,14.4 L4.6,3.7 C5.7,0.8 9,-0.7 11.9,0.4 L22.5,4.4 C25.4,5.5 26.9,8.8 25.8,11.7 L21.8,22.4 C20.7,25.3 17.4,26.8 14.5,25.7 L3.9,21.7 C1,20.6 -0.5,17.3 0.6,14.4 Z"></path>
                </g>
                <g opacity="0.5" transform="translate(41.000000, 26.000000)" id="Shape" fill="#FFFFFF">
                    <path d="M23.4,21.9 L12.9,26.3 C10,27.5 6.7,26.1 5.5,23.2 L1,12.7 C-0.2,9.8 1.2,6.5 4.1,5.3 L14.6,0.9 C17.5,-0.3 20.8,1.1 22,4 L26.4,14.5 C27.6,17.4 26.3,20.7 23.4,21.9 Z"></path>
                </g>
            </g>
        </g>
    </g>
</svg>