<?xml version="1.0" encoding="UTF-8" standalone="no"?>
<svg width="76px" height="104px" viewBox="0 0 76 104" version="1.1" xmlns="http://www.w3.org/2000/svg" xmlns:xlink="http://www.w3.org/1999/xlink">
    <!-- Generator: Sketch 41.2 (35397) - http://www.bohemiancoding.com/sketch -->
    <title>Huricane</title>
    <desc>Created with Sketch.</desc>
    <defs></defs>
    <g id="Page-1" stroke="none" stroke-width="1" fill="none" fill-rule="evenodd">
        <g id="Huricane">
            <g id="Group" transform="translate(32.000000, 5.000000)">
                <circle id="Oval" fill="#E5DC35" cx="22" cy="22" r="20"></circle>
                <path d="M22,44 C9.9,44 0,34.1 0,22 C0,9.9 9.9,0 22,0 C34.1,0 44,9.9 44,22 C44,34.1 34.1,44 22,44 Z M22,4 C12.1,4 4,12.1 4,22 C4,31.9 12.1,40 22,40 C31.9,40 40,31.9 40,22 C40,12.1 31.9,4 22,4 Z" id="Shape" fill="#62345B"></path>
                <g transform="translate(5.000000, 5.000000)" id="Shape" fill="#FFFFFF" opacity="0.7">
                    <g transform="translate(12.000000, 0.000000)">
                        <path d="M3.2,9.1 L1,3.7 C0.5,2.5 1.3,1.1 2.6,0.9 C4.3,0.7 5.9,0.7 7.6,0.9 C8.9,1.1 9.7,2.4 9.2,3.7 L7,9.1 C6.2,10.7 3.8,10.7 3.2,9.1 Z"></path>
                    </g>
                    <g transform="translate(21.000000, 3.000000)">
                        <path d="M0.3,7.1 L2.5,1.7 C3,0.5 4.5,0.1 5.6,0.9 C7,1.9 8.1,3.1 9.2,4.5 C10,5.5 9.6,7.1 8.4,7.6 L3,9.8 C1.3,10.4 -0.4,8.7 0.3,7.1 Z"></path>
                    </g>
                    <g transform="translate(23.000000, 12.000000)">
                        <path d="M1.9,3.2 L7.3,1 C8.5,0.5 9.9,1.3 10.1,2.6 C10.3,4.3 10.3,5.9 10.1,7.6 C9.9,8.9 8.6,9.7 7.3,9.2 L1.9,7 C0.3,6.2 0.3,3.8 1.9,3.2 Z"></path>
                    </g>
                    <g transform="translate(21.000000, 21.000000)">
                        <path d="M2.9,0.3 L8.3,2.5 C9.5,3 9.9,4.5 9.1,5.6 C8.1,7 6.9,8.1 5.5,9.2 C4.5,10 2.9,9.6 2.4,8.4 L0.2,3 C-0.4,1.3 1.3,-0.4 2.9,0.3 Z"></path>
                    </g>
                    <g transform="translate(12.000000, 23.000000)">
                        <path d="M6.8,1.9 L9,7.3 C9.5,8.5 8.7,9.9 7.4,10.1 C5.7,10.3 4.1,10.3 2.4,10.1 C1.1,9.9 0.3,8.6 0.8,7.3 L3,1.9 C3.8,0.3 6.2,0.3 6.8,1.9 Z"></path>
                    </g>
                    <g transform="translate(3.000000, 21.000000)">
                        <path d="M9.7,2.9 L7.5,8.3 C7,9.5 5.5,9.9 4.4,9.1 C3,8.1 1.9,6.9 0.8,5.5 C1.30451205e-14,4.5 0.4,2.9 1.6,2.4 L7,0.2 C8.7,-0.4 10.4,1.3 9.7,2.9 Z"></path>
                    </g>
                    <g transform="translate(0.000000, 12.000000)">
                        <path d="M9.1,6.8 L3.7,9 C2.5,9.5 1.1,8.7 0.9,7.4 C0.7,5.7 0.7,4.1 0.9,2.4 C1.1,1.1 2.4,0.3 3.7,0.8 L9.1,3 C10.7,3.8 10.7,6.2 9.1,6.8 Z"></path>
                    </g>
                    <g transform="translate(3.000000, 3.000000)">
                        <path d="M7.1,9.7 L1.7,7.5 C0.5,7 0.1,5.5 0.9,4.4 C1.9,3 3.1,1.9 4.5,0.8 C5.5,-4.99600361e-15 7.1,0.4 7.6,1.6 L9.8,7 C10.4,8.7 8.7,10.4 7.1,9.7 Z"></path>
                    </g>
                </g>
            </g>
            <g id="Group">
                <path d="M44.3,62.3 C43.2,62.3 42.3,61.4 42.3,60.3 L42.3,27 C42.3,25.9 43.2,25 44.3,25 C45.4,25 46.3,25.9 46.3,27 L46.3,60.3 C46.3,61.4 45.4,62.3 44.3,62.3 Z" id="Shape" fill="#62345B"></path>
                <path d="M34.9,85.3 L33.7,85.3 C22.5,85.3 13.5,76.2 13.5,65.1 L13.5,65.1 C13.5,62 14.2,58.9 15.6,56.1 L15.6,56.1 C19.5,48.3 19.5,39.1 15.6,31.3 L13.5,27 L55.2,27 L53,31.3 C49.1,39.1 49.1,48.3 53,56.1 L53,56.1 C54.4,58.9 55.1,62 55.1,65.1 L55.1,65.1 C55.1,76.3 46.1,85.3 34.9,85.3 Z" id="Shape" fill="#D0D3C6"></path>
                <g opacity="0.6" transform="translate(17.000000, 24.000000)" id="Shape" fill="#FFFFFF">
                    <path d="M7.1,21.6 C7,21.6 7,21.6 7.1,21.6 C5.9,21.6 5.1,20.6 5.1,19.5 C5.3,13.7 3.8,8.5 0.8,4 C0.2,3.1 0.4,1.8 1.3,1.2 C2.2,0.6 3.5,0.8 4.1,1.7 C7.6,6.8 9.3,12.8 9.1,19.5 C9,20.8 8.1,21.6 7.1,21.6 Z"></path>
                </g>
                <g opacity="0.2" transform="translate(30.000000, 27.000000)" id="Shape" fill="#62345B">
                    <g>
                        <path d="M23,29.1 C19.1,21.3 19.1,12.1 23,4.3 L25.1,0 L16.8,0 L14.7,4.3 C10.8,12.1 10.8,21.3 14.7,29.1 L14.7,29.1 C16.1,31.9 16.8,35 16.8,38.1 L16.8,38.1 C16.8,48.1 9.6,56.3 0.1,58 C1.3,58.2 2.4,58.3 3.7,58.3 L4.9,58.3 C16.1,58.3 25.1,49.2 25.1,38.1 L25.1,38.1 C25.1,35 24.4,31.9 23,29.1 L23,29.1 Z"></path>
                    </g>
                </g>
                <g transform="translate(25.000000, 61.000000)" id="Oval" fill="#FFFFFF" opacity="0.7">
                    <g>
                        <circle cx="2.2" cy="2.2" r="2.1"></circle>
                    </g>
                    <g transform="translate(0.000000, 8.000000)">
                        <circle cx="2.2" cy="2.6" r="2.1"></circle>
                    </g>
                    <g transform="translate(8.000000, 8.000000)">
                        <circle cx="2.5" cy="2.6" r="2.1"></circle>
                    </g>
                </g>
                <path d="M34.9,87.3 L33.7,87.3 C21.4,87.3 11.5,77.3 11.5,65.1 C11.5,61.7 12.3,58.2 13.8,55.2 C17.4,48 17.4,39.4 13.8,32.2 L11.7,27.9 C11.4,27.3 11.4,26.5 11.8,26 C12.2,25.4 12.8,25.1 13.5,25.1 L55.2,25.1 C55.9,25.1 56.5,25.5 56.9,26 C57.3,26.6 57.3,27.3 57,27.9 L54.9,32.2 C51.3,39.4 51.3,48 54.9,55.2 C56.4,58.3 57.2,61.7 57.2,65.1 C57.1,77.4 47.2,87.3 34.9,87.3 Z M16.7,29 L17.4,30.4 C21.6,38.7 21.6,48.7 17.4,57 C16.1,59.5 15.5,62.3 15.5,65.2 C15.5,75.2 23.7,83.4 33.7,83.4 L34.9,83.4 C44.9,83.4 53.1,75.2 53.1,65.2 C53.1,62.4 52.4,59.6 51.2,57 C47,48.7 47,38.8 51.2,30.4 L51.9,29 L16.7,29 Z" id="Shape" fill="#62345B"></path>
                <path d="M26,29 C25.2,29 24.4,28.5 24.1,27.6 L16.2,4 L2.6,4 C1.5,4 0.6,3.1 0.6,2 C0.6,0.9 1.5,0 2.6,0 L17.6,0 C18.5,0 19.2,0.6 19.5,1.4 L27.8,26.4 C28.1,27.4 27.6,28.6 26.5,28.9 C26.4,29 26.2,29 26,29 Z" id="Shape" fill="#62345B"></path>
            </g>
            <path d="M34.9,104 C33.8,104 32.9,103.1 32.9,102 L32.9,85.3 C32.9,84.2 33.8,83.3 34.9,83.3 C36,83.3 36.9,84.2 36.9,85.3 L36.9,102 C36.9,103.1 36,104 34.9,104 Z" id="Shape" fill="#62345B"></path>
            <path d="M51,104 L17.6,104 C16.5,104 15.6,103.1 15.6,102 C15.6,100.9 16.5,100 17.6,100 L51,100 C52.1,100 53,100.9 53,102 C53,103.1 52.1,104 51,104 Z" id="Shape" fill="#62345B"></path>
        </g>
    </g>
</svg>