<?xml version="1.0" encoding="UTF-8" standalone="no"?>
<svg width="60px" height="115px" viewBox="0 0 60 115" version="1.1" xmlns="http://www.w3.org/2000/svg" xmlns:xlink="http://www.w3.org/1999/xlink">
    <!-- Generator: Sketch 41.2 (35397) - http://www.bohemiancoding.com/sketch -->
    <title>highballStraw copy 2</title>
    <desc>Created with Sketch.</desc>
    <defs></defs>
    <g id="Page-1" stroke="none" stroke-width="1" fill="none" fill-rule="evenodd">
        <g id="highballStraw-copy-2">
            <g id="Page-1">
                <g id="highballStraw-copy">
                    <rect id="Rectangle-path" fill="#EAF3FB" x="21.2" y="21.3" width="36.7" height="91.7"></rect>
                    <path d="M48.7,94.7 L30.3,94.7 C25.2,94.7 21.1,90.6 21.1,85.5 L21.1,21.3 L57.8,21.3 L57.8,85.5 C57.8,90.6 53.7,94.7 48.7,94.7 Z" id="Shape" fill="#D0D3C6"></path>
                    <g id="Group" opacity="0.2" transform="translate(47.000000, 21.000000)" fill="#62345B">
                        <g id="Rectangle-path">
                            <rect x="0.8" y="0.3" width="10.1" height="91.7"></rect>
                        </g>
                    </g>
                    <g id="Group" opacity="0.7" transform="translate(25.000000, 19.000000)" fill="#FFFFFF">
                        <path d="M2.6,55.4 C1.5,55.4 0.6,54.5 0.6,53.4 L0.6,2.1 C0.6,1 1.5,0.1 2.6,0.1 C3.7,0.1 4.6,1 4.6,2.1 L4.6,53.4 C4.6,54.5 3.7,55.4 2.6,55.4 Z" id="Shape"></path>
                    </g>
                    <path d="M57.8,115 L21.2,115 C20.1,115 19.2,114.1 19.2,113 L19.2,21.3 C19.2,20.2 20.1,19.3 21.2,19.3 L57.9,19.3 C59,19.3 59.9,20.2 59.9,21.3 L59.9,113 C59.8,114.1 58.9,115 57.8,115 Z M23.2,111 L55.9,111 L55.9,23.3 L23.2,23.3 L23.2,111 Z" id="Shape" fill="#62345B"></path>
                    <path d="M30.3,23.3 C29.3,23.3 28.5,22.6 28.3,21.6 L26,5.7 L3.5,14 C2.5,14.4 1.3,13.9 0.9,12.8 C0.5,11.8 1,10.6 2.1,10.2 L26.9,1 C27.5,0.8 28.1,0.8 28.6,1.2 C29.1,1.6 29.5,2 29.6,2.6 L32.3,21 C32.5,22.1 31.7,23.1 30.6,23.3 L30.3,23.3 Z" id="Shape" fill="#62345B"></path>
                    <path d="M35.8,23.3 C34.7,23.3 33.8,22.4 33.8,21.3 L33.8,3 C33.8,1.9 34.7,1 35.8,1 C36.9,1 37.8,1.9 37.8,3 L37.8,21.3 C37.8,22.4 37,23.3 35.8,23.3 Z" id="Shape" fill="#62345B"></path>
                    <g id="Group" opacity="0.7" transform="translate(34.000000, 71.000000)" fill="#FFFFFF">
                        <g id="Oval" transform="translate(9.000000, 0.000000)">
                            <ellipse cx="2" cy="2.6" rx="1.8" ry="1.8"></ellipse>
                        </g>
                        <g id="Oval" transform="translate(9.000000, 9.000000)">
                            <ellipse cx="2" cy="2.7" rx="1.8" ry="1.8"></ellipse>
                        </g>
                        <g id="Oval" transform="translate(0.000000, 9.000000)">
                            <ellipse cx="1.8" cy="2.7" rx="1.8" ry="1.8"></ellipse>
                        </g>
                    </g>
                </g>
            </g>
        </g>
    </g>
</svg>