<?xml version="1.0" encoding="UTF-8" standalone="no"?>
<svg width="60px" height="114px" viewBox="0 0 60 114" version="1.1" xmlns="http://www.w3.org/2000/svg" xmlns:xlink="http://www.w3.org/1999/xlink">
    <!-- Generator: Sketch 41.2 (35397) - http://www.bohemiancoding.com/sketch -->
    <title>highballGarnish</title>
    <desc>Created with Sketch.</desc>
    <defs></defs>
    <g id="Page-1" stroke="none" stroke-width="1" fill="none" fill-rule="evenodd">
        <g id="highballGarnish">
            <g id="Group" transform="translate(19.000000, 0.000000)">
                <path d="M38.8,20.3 C38.8,30.4 30.6,38.6 20.5,38.6 L21.1,20 L2.1,20.3 C2.2,10.2 10.4,2 20.5,2 C30.6,2 38.8,10.2 38.8,20.3 Z" id="Shape" fill="#E5DC35"></path>
                <path d="M20.5,40.7 C19.4,40.7 18.5,39.8 18.5,38.7 C18.5,37.6 19.4,36.7 20.5,36.7 C29.5,36.7 36.8,29.4 36.8,20.4 C36.8,11.4 29.5,4.1 20.5,4.1 C11.5,4.1 4.2,11.4 4.2,20.4 C4.2,21.5 3.3,22.4 2.2,22.4 C1.1,22.4 0.2,21.5 0.2,20.4 C0.2,9.1 9.3,0 20.5,0 C31.7,0 40.8,9.1 40.8,20.3 C40.8,31.5 31.7,40.7 20.5,40.7 Z" id="Shape" fill="#62345B"></path>
                <g transform="translate(6.000000, 5.000000)" id="Shape" fill="#FFFFFF" opacity="0.7">
                    <g transform="translate(5.000000, 0.000000)">
                        <path d="M5.2,9.3 L1.4,5.5 C0.5,4.6 0.7,3.2 1.8,2.6 C3.1,1.8 4.5,1.2 6,0.9 C7.2,0.6 8.3,1.5 8.3,2.7 L8.3,8 C8.3,9.6 6.3,10.4 5.2,9.3 Z"></path>
                    </g>
                    <g transform="translate(15.000000, 0.000000)">
                        <path d="M0.7,8 L0.7,2.7 C0.7,1.5 1.8,0.6 3,0.9 C4.5,1.3 5.9,1.9 7.3,2.7 C8.3,3.3 8.5,4.7 7.7,5.6 L3.9,9.4 C2.7,10.4 0.7,9.6 0.7,8 Z"></path>
                    </g>
                    <g transform="translate(20.000000, 6.000000)">
                        <path d="M0.6,5 L4.4,1.2 C5.3,0.3 6.7,0.5 7.3,1.6 C8.1,2.9 8.7,4.3 9,5.8 C9.3,7 8.4,8.1 7.2,8.1 L1.9,8.1 C0.2,8.1 -0.6,6.1 0.6,5 Z"></path>
                    </g>
                    <g transform="translate(19.000000, 16.000000)">
                        <path d="M2.9,0.5 L8.2,0.5 C9.4,0.5 10.3,1.6 10,2.8 C9.6,4.3 9,5.7 8.2,7.1 C7.6,8.1 6.2,8.3 5.3,7.5 L1.5,3.7 C0.4,2.5 1.2,0.5 2.9,0.5 Z"></path>
                    </g>
                    <g transform="translate(15.000000, 20.000000)">
                        <path d="M3.9,1.4 L7.7,5.2 C8.6,6.1 8.4,7.5 7.3,8.1 C6,8.9 4.6,9.5 3.1,9.8 C1.9,10.1 0.8,9.2 0.8,8 L0.8,2.7 C0.7,1.1 2.7,0.2 3.9,1.4 Z"></path>
                    </g>
                    <g transform="translate(0.000000, 6.000000)">
                        <path d="M7.2,8.1 L1.9,8.1 C0.7,8.1 -0.2,7 0.1,5.8 C0.5,4.3 1.1,2.9 1.9,1.5 C2.5,0.5 3.9,0.3 4.8,1.1 L8.6,4.9 C9.6,6.1 8.8,8.1 7.2,8.1 Z"></path>
                    </g>
                </g>
            </g>
            <rect id="Rectangle-path" fill="#EAF3FB" x="2.8" y="20.3" width="36.7" height="91.7"></rect>
            <path d="M30.3,93.7 L12,93.7 C6.9,93.7 2.8,89.6 2.8,84.5 L2.8,20.3 L39.5,20.3 L39.5,84.5 C39.5,89.6 35.4,93.7 30.3,93.7 Z" id="Shape" fill="#D0D3C6"></path>
            <g id="Group" opacity="0.2" transform="translate(29.000000, 20.000000)" fill="#62345B">
                <g id="Rectangle-path">
                    <rect x="0.4" y="0.3" width="10.1" height="91.7"></rect>
                </g>
            </g>
            <g id="Group" opacity="0.7" transform="translate(7.000000, 18.000000)" fill="#FFFFFF">
                <path d="M2.3,55.4 C1.2,55.4 0.3,54.5 0.3,53.4 L0.3,2.1 C0.3,1 1.2,0.1 2.3,0.1 C3.4,0.1 4.3,1 4.3,2.1 L4.3,53.4 C4.3,54.5 3.4,55.4 2.3,55.4 Z" id="Shape"></path>
            </g>
            <path d="M39.5,114 L2.8,114 C1.7,114 0.8,113.1 0.8,112 L0.8,20.3 C0.8,19.2 1.7,18.3 2.8,18.3 L39.5,18.3 C40.6,18.3 41.5,19.2 41.5,20.3 L41.5,112 C41.5,113.1 40.6,114 39.5,114 Z M4.8,110 L37.5,110 L37.5,22.3 L4.8,22.3 L4.8,110 Z" id="Shape" fill="#62345B"></path>
            <g id="Group" transform="translate(15.000000, 70.000000)" fill="#FFFFFF" opacity="0.7">
                <g transform="translate(9.000000, 0.000000)" id="Oval">
                    <circle cx="2.7" cy="2.6" r="1.8"></circle>
                </g>
                <g transform="translate(9.000000, 9.000000)" id="Oval">
                    <circle cx="2.7" cy="2.7" r="1.8"></circle>
                </g>
                <g transform="translate(0.000000, 9.000000)" id="Oval">
                    <circle cx="2.5" cy="2.7" r="1.8"></circle>
                </g>
            </g>
        </g>
    </g>
</svg>