<?xml version="1.0" encoding="UTF-8" standalone="no"?>
<svg width="37px" height="124px" viewBox="0 0 37 124" version="1.1" xmlns="http://www.w3.org/2000/svg" xmlns:xlink="http://www.w3.org/1999/xlink">
    <!-- Generator: Sketch 41.2 (35397) - http://www.bohemiancoding.com/sketch -->
    <title>ChampagneGlass</title>
    <desc>Created with Sketch.</desc>
    <defs></defs>
    <g id="Page-1" stroke="none" stroke-width="1" fill="none" fill-rule="evenodd">
        <g id="ChampagneGlass">
            <g id="Group">
                <path d="M1,38.4465367 C1,64.7740474 8.82810393,86.2478829 18.4255738,86.2478829 C28.0230437,86.2478829 35.8511476,64.7740474 35.8511476,38.4465367 C35.8511476,24.3267545 33.6528445,11.6777829 30.1141126,3 L6.73703507,3 C3.19830316,11.6777829 1,24.3267545 1,38.4465367 Z" id="Shape" fill="#EAF3FB"></path>
                <path d="M18.4255738,86.8013462 C28.0230437,86.8013462 35.8511476,62.9921154 35.8511476,33.8013462 L1,33.8013462 C1,63.1551924 8.82810393,86.8013462 18.4255738,86.8013462 Z" id="Shape" fill="#E5D283"></path>
                <g opacity="0.15" transform="translate(16.000000, 2.000000)" id="Shape" fill="#62345B">
                    <g>
                        <path d="M14.3693963,1.02956746 L9.00768123,1.02956746 C12.5464131,9.70735031 14.7447163,22.503403 14.7447163,36.4761042 C14.7447163,60.3032368 8.36427543,80.1591806 0,83.6891261 C0.857874403,84.1303693 1.76936596,84.2774504 2.68085751,84.2774504 C12.2783274,84.2774504 20.1064313,62.8036149 20.1064313,36.4761042 C20.1064313,22.3563219 17.9081282,9.70735031 14.3693963,1.02956746 Z"></path>
                    </g>
                </g>
                <path d="M18.4979168,89.1311255 C8.31065828,89.1311255 0,66.3335604 0,38.388158 C0,23.9742136 2.25192031,10.2956746 6.11235512,0.735405326 C6.32682372,0.294162131 6.54129232,0 6.80937808,0 L30.1328384,0 C30.4009242,0 30.6690099,0.294162131 30.8298614,0.735405326 C34.7439133,10.2956746 36.9422165,24.1212947 36.9422165,38.388158 C36.9958336,66.3335604 28.6851754,89.1311255 18.4979168,89.1311255 Z M7.23831528,5.88324261 C3.96766911,14.2668633 2.14468601,26.1804296 2.14468601,38.388158 C2.14468601,63.097777 9.49023559,83.2478829 18.4979168,83.2478829 C27.5055981,83.2478829 34.8511476,63.097777 34.8511476,38.388158 C34.8511476,26.0333486 32.9745474,14.2668633 29.7575184,5.88324261 L7.23831528,5.88324261 L7.23831528,5.88324261 Z" id="Shape" fill="#62345B"></path>
                <path d="M19,122.3 C17.9,122.3 17,121.4 17,120.3 L17,87.3 C17,86.2 17.9,85.3 19,85.3 C20.1,85.3 21,86.2 21,87.3 L21,120.3 C21,121.4 20.1,122.3 19,122.3 Z" id="Shape" fill="#62345B"></path>
                <path d="M35.3636364,123.572727 L2.63636364,123.572727 C1.73636364,123.572727 1,122.836364 1,121.936364 C1,121.036364 1.73636364,120.3 2.63636364,120.3 L35.3636364,120.3 C36.2636364,120.3 37,121.036364 37,121.936364 C37,122.836364 36.2636364,123.572727 35.3636364,123.572727 Z" id="Shape" fill="#62345B"></path>
                <g opacity="0.8" transform="translate(3.000000, 9.000000)" id="Shape" fill="#FFFFFF">
                    <path d="M3.05617756,52.3801643 C2.68085751,52.3801643 2.35915461,51.9389211 2.14468601,50.9093537 C0.750640103,44.4377868 0,37.0837335 0,29.5825992 C0,18.8456814 1.44766306,8.69708792 4.12852057,0.901791463 C4.55745777,-0.274857059 5.20086357,-0.274857059 5.62980077,0.754710398 C6.05873797,1.93135892 6.05873797,3.6963317 5.68341792,4.87298023 C3.37788046,11.6387092 2.14468601,20.3164921 2.14468601,29.5825992 C2.14468601,36.0541661 2.78809181,42.3786519 3.96766911,47.9677323 C4.28937202,49.2914619 4.12852057,51.2035158 3.59234906,51.9389211 C3.43149761,52.3801643 3.27064616,52.3801643 3.05617756,52.3801643 Z"></path>
                </g>
            </g>
        </g>
    </g>
</svg>