<?xml version="1.0" ?><!DOCTYPE svg  PUBLIC '-//W3C//DTD SVG 1.1//EN'  'http://www.w3.org/Graphics/SVG/1.1/DTD/svg11.dtd'><svg enable-background="new 0 0 128 128" id="Слой_1" version="1.1" viewBox="0 0 128 128" xml:space="preserve" xmlns="http://www.w3.org/2000/svg" xmlns:xlink="http://www.w3.org/1999/xlink"><g><rect fill="#EAF3FB" height="91.7" width="36.7" x="37.2" y="27.3"/></g><g><path d="M64.7,100.7H46.3c-5.1,0-9.2-4.1-9.2-9.2V27.3h36.7v64.2C73.8,96.6,69.7,100.7,64.7,100.7z" fill="#C7DD82"/></g><g opacity="0.2"><g><rect fill="#62345B" height="91.7" width="10.1" x="63.8" y="27.3"/></g></g><g opacity="0.7"><path d="M43.6,80.4c-1.1,0-2-0.9-2-2V27.1c0-1.1,0.9-2,2-2s2,0.9,2,2v51.3C45.6,79.5,44.7,80.4,43.6,80.4z" fill="#FFFFFF"/></g><g><path d="M73.8,121H37.2c-1.1,0-2-0.9-2-2V27.3c0-1.1,0.9-2,2-2h36.7c1.1,0,2,0.9,2,2V119   C75.8,120.1,74.9,121,73.8,121z M39.2,117h32.7V29.3H39.2V117z" fill="#62345B"/></g><g><path d="M46.3,29.3c-1,0-1.8-0.7-2-1.7L42,11.7L19.5,20c-1,0.4-2.2-0.1-2.6-1.2c-0.4-1,0.1-2.2,1.2-2.6l24.8-9.2   c0.6-0.2,1.2-0.2,1.7,0.2s0.9,0.8,1,1.4L48.3,27c0.2,1.1-0.6,2.1-1.7,2.3C46.5,29.3,46.4,29.3,46.3,29.3z" fill="#62345B"/></g><g><path d="M51.8,29.3c-1.1,0-2-0.9-2-2l0-18.3c0-1.1,0.9-2,2-2s2,0.9,2,2l0,18.3C53.8,28.4,53,29.3,51.8,29.3z" fill="#62345B"/></g><g><g opacity="0.7"><circle cx="61" cy="79.6" fill="#FFFFFF" r="1.8"/></g><g opacity="0.7"><circle cx="61" cy="88.7" fill="#FFFFFF" r="1.8"/></g><g opacity="0.7"><circle cx="51.8" cy="88.7" fill="#FFFFFF" r="1.8"/></g></g></svg>