<?xml version="1.0" ?><!DOCTYPE svg  PUBLIC '-//W3C//DTD SVG 1.1//EN'  'http://www.w3.org/Graphics/SVG/1.1/DTD/svg11.dtd'><svg enable-background="new 0 0 128 128" id="Слой_1" version="1.1" viewBox="0 0 128 128" xml:space="preserve" xmlns="http://www.w3.org/2000/svg" xmlns:xlink="http://www.w3.org/1999/xlink"><g><g><path d="M93.8,27.3c0,10.1-8.2,18.3-18.3,18.3l0.6-18.6l-19,0.3C57.2,17.2,65.4,9,75.5,9S93.8,17.2,93.8,27.3z" fill="#E5DC35"/></g><g><path d="M75.5,47.7c-1.1,0-2-0.9-2-2s0.9-2,2-2c9,0,16.3-7.3,16.3-16.3c0-9-7.3-16.3-16.3-16.3    s-16.3,7.3-16.3,16.3c0,1.1-0.9,2-2,2s-2-0.9-2-2C55.2,16.1,64.3,7,75.5,7s20.3,9.1,20.3,20.3C95.8,38.5,86.7,47.7,75.5,47.7z" fill="#62345B"/></g><g><g opacity="0.7"><path d="M71.2,21.3l-3.8-3.8c-0.9-0.9-0.7-2.3,0.4-2.9c1.3-0.8,2.7-1.4,4.2-1.7c1.2-0.3,2.3,0.6,2.3,1.8V20     C74.3,21.6,72.3,22.4,71.2,21.3z" fill="#FFFFFF"/></g><g opacity="0.7"><path d="M76.7,20l0-5.3c0-1.2,1.1-2.1,2.3-1.8c1.5,0.4,2.9,1,4.3,1.8c1,0.6,1.2,2,0.4,2.9l-3.8,3.8     C78.7,22.4,76.7,21.6,76.7,20z" fill="#FFFFFF"/></g><g opacity="0.7"><path d="M81.6,23l3.8-3.8c0.9-0.9,2.3-0.7,2.9,0.4c0.8,1.3,1.4,2.7,1.7,4.2c0.3,1.2-0.6,2.3-1.8,2.3h-5.3     C81.2,26.1,80.4,24.1,81.6,23z" fill="#FFFFFF"/></g><g opacity="0.7"><path d="M82.9,28.5l5.3,0c1.2,0,2.1,1.1,1.8,2.3c-0.4,1.5-1,2.9-1.8,4.3c-0.6,1-2,1.2-2.9,0.4l-3.8-3.8     C80.4,30.5,81.2,28.5,82.9,28.5z" fill="#FFFFFF"/></g><g opacity="0.7"><path d="M79.9,33.4l3.8,3.8c0.9,0.9,0.7,2.3-0.4,2.9c-1.3,0.8-2.7,1.4-4.2,1.7c-1.2,0.3-2.3-0.6-2.3-1.8v-5.3     C76.7,33.1,78.7,32.2,79.9,33.4z" fill="#FFFFFF"/></g><g opacity="0.7"><path d="M68.2,26.1l-5.3,0c-1.2,0-2.1-1.1-1.8-2.3c0.4-1.5,1-2.9,1.8-4.3c0.6-1,2-1.2,2.9-0.4l3.8,3.8     C70.6,24.1,69.8,26.1,68.2,26.1z" fill="#FFFFFF"/></g></g></g><g><rect fill="#EAF3FB" height="91.7" width="36.7" x="38.8" y="27.3"/></g><g><path d="M66.3,100.7H48c-5.1,0-9.2-4.1-9.2-9.2V27.3h36.7v64.2C75.5,96.6,71.4,100.7,66.3,100.7z" fill="#8D5B6A"/></g><g opacity="0.2"><g><rect fill="#62345B" height="91.7" width="10.1" x="65.4" y="27.3"/></g></g><g opacity="0.7"><path d="M45.3,80.4c-1.1,0-2-0.9-2-2V27.1c0-1.1,0.9-2,2-2s2,0.9,2,2v51.3C47.3,79.5,46.4,80.4,45.3,80.4z" fill="#FFFFFF"/></g><g><path d="M75.5,121H38.8c-1.1,0-2-0.9-2-2V27.3c0-1.1,0.9-2,2-2h36.7c1.1,0,2,0.9,2,2V119   C77.5,120.1,76.6,121,75.5,121z M40.8,117h32.7V29.3H40.8V117z" fill="#62345B"/></g><g><g opacity="0.7"><circle cx="62.7" cy="79.6" fill="#FFFFFF" r="1.8"/></g><g opacity="0.7"><circle cx="62.7" cy="88.7" fill="#FFFFFF" r="1.8"/></g><g opacity="0.7"><circle cx="53.5" cy="88.7" fill="#FFFFFF" r="1.8"/></g></g></svg>