<?xml version="1.0" ?><!DOCTYPE svg  PUBLIC '-//W3C//DTD SVG 1.1//EN'  'http://www.w3.org/Graphics/SVG/1.1/DTD/svg11.dtd'><svg enable-background="new 0 0 128 128" id="Слой_1" version="1.1" viewBox="0 0 128 128" xml:space="preserve" xmlns="http://www.w3.org/2000/svg" xmlns:xlink="http://www.w3.org/1999/xlink"><g><polygon fill="#F1F9FE" points="62.4,93.2 100.8,45.1 23.9,45.1  "/></g><g><g><circle cx="100.8" cy="45.1" fill="#E5DC35" r="19.2"/></g><g><path d="M100.9,66.3c-11.7,0-21.2-9.5-21.2-21.2c0-11.7,9.5-21.2,21.2-21.2c11.7,0,21.2,9.5,21.2,21.2    C122.1,56.8,112.6,66.3,100.9,66.3z M100.9,27.8c-9.5,0-17.2,7.7-17.2,17.2s7.7,17.2,17.2,17.2s17.2-7.7,17.2-17.2    S110.4,27.8,100.9,27.8z" fill="#62345B"/></g><g><g opacity="0.7"><path d="M99.1,37.5l-2.1-5.2c-0.5-1.2,0.3-2.5,1.5-2.7c1.6-0.2,3.2-0.2,4.8,0c1.3,0.2,2,1.5,1.5,2.7l-2.1,5.2     C102,39,99.7,39,99.1,37.5z" fill="#FFFFFF"/></g><g opacity="0.7"><path d="M105,38.4l2.1-5.2c0.5-1.2,1.9-1.6,2.9-0.8c1.3,1,2.4,2.1,3.4,3.4c0.8,1,0.4,2.5-0.8,2.9l-5.2,2.1     C105.9,41.6,104.3,40,105,38.4z" fill="#FFFFFF"/></g><g opacity="0.7"><path d="M108.5,43.3l5.2-2.1c1.2-0.5,2.5,0.3,2.7,1.5c0.2,1.6,0.2,3.2,0,4.8c-0.2,1.3-1.5,2-2.7,1.5l-5.2-2.1     C106.9,46.2,106.9,44,108.5,43.3z" fill="#FFFFFF"/></g><g opacity="0.7"><path d="M107.5,49.2l5.2,2.1c1.2,0.5,1.6,1.9,0.8,2.9c-1,1.3-2.1,2.4-3.4,3.4c-1,0.8-2.5,0.4-2.9-0.8l-2.1-5.2     C104.3,50.1,105.9,48.6,107.5,49.2z" fill="#FFFFFF"/></g><g opacity="0.7"><path d="M102.6,52.7l2.1,5.2c0.5,1.2-0.3,2.5-1.5,2.7c-1.6,0.2-3.2,0.2-4.8,0c-1.3-0.2-2-1.5-1.5-2.7l2.1-5.2     C99.7,51.1,102,51.1,102.6,52.7z" fill="#FFFFFF"/></g><g opacity="0.7"><path d="M96.7,51.7l-2.1,5.2c-0.5,1.2-1.9,1.6-2.9,0.8c-1.3-1-2.4-2.1-3.4-3.4c-0.8-1-0.4-2.5,0.8-2.9l5.2-2.1     C95.8,48.6,97.4,50.1,96.7,51.7z" fill="#FFFFFF"/></g><g opacity="0.7"><path d="M93.2,46.9L88,49c-1.2,0.5-2.5-0.3-2.7-1.5c-0.2-1.6-0.2-3.2,0-4.8c0.2-1.3,1.5-2,2.7-1.5l5.2,2.1     C94.8,44,94.8,46.2,93.2,46.9z" fill="#FFFFFF"/></g><g opacity="0.7"><path d="M94.2,40.9L89,38.8c-1.2-0.5-1.6-1.9-0.8-2.9c1-1.3,2.1-2.4,3.4-3.4c1-0.8,2.5-0.4,2.9,0.8l2.1,5.2     C97.4,40,95.8,41.6,94.2,40.9z" fill="#FFFFFF"/></g></g></g><g><polygon fill="#F9BFC3" points="35.5,59.5 89.3,59.5 62.4,93.2  "/></g><g><path d="M62.4,124c-1.1,0-2-0.9-2-2V93.2c0-1.1,0.9-2,2-2s2,0.9,2,2V122C64.4,123.1,63.5,124,62.4,124z" fill="#62345B"/></g><g><path d="M81.6,124H43.2c-1.1,0-2-0.9-2-2s0.9-2,2-2h38.5c1.1,0,2,0.9,2,2S82.7,124,81.6,124z" fill="#62345B"/></g><g><path d="M62.4,95.2c-0.6,0-1.2-0.3-1.6-0.8L22.4,46.3c-0.5-0.6-0.6-1.4-0.2-2.1s1-1.1,1.8-1.1h76.9   c0.8,0,1.5,0.4,1.8,1.1s0.2,1.5-0.2,2.1L63.9,94.4C63.6,94.9,63,95.2,62.4,95.2z M28.1,47.1L62.4,90l34.3-42.9H28.1z" fill="#62345B"/></g></svg>