<?xml version="1.0" ?><!DOCTYPE svg  PUBLIC '-//W3C//DTD SVG 1.1//EN'  'http://www.w3.org/Graphics/SVG/1.1/DTD/svg11.dtd'><svg enable-background="new 0 0 128 128" id="Слой_1" version="1.1" viewBox="0 0 128 128" xml:space="preserve" xmlns="http://www.w3.org/2000/svg" xmlns:xlink="http://www.w3.org/1999/xlink"><g><g><g><path d="M31.5,42.8c0,17.9,14.6,32.5,32.5,32.5s32.5-14.6,32.5-32.5c0-9.6-4.1-18.2-10.7-24.1H42.2     C35.6,24.6,31.5,33.2,31.5,42.8z" fill="#EAF3FB"/></g></g><g><g><path d="M64,75.3c17.9,0,32.5-14.6,32.5-32.5h-65C31.5,60.8,46.1,75.3,64,75.3z" fill="#E5D283"/></g></g><g opacity="0.15"><g><path d="M85.8,18.7h-10c6.6,5.9,10.7,14.6,10.7,24.1c0,16.2-11.9,29.7-27.5,32.1c1.6,0.3,3.3,0.4,5,0.4     c17.9,0,32.5-14.6,32.5-32.5C96.5,33.2,92.4,24.6,85.8,18.7z" fill="#62345B"/></g></g><g><g><path d="M64,77.3c-19,0-34.5-15.5-34.5-34.5c0-9.8,4.2-19.1,11.4-25.6c0.4-0.3,0.8-0.5,1.3-0.5h43.5     c0.5,0,1,0.2,1.3,0.5c7.3,6.5,11.4,15.9,11.4,25.6C98.5,61.8,83,77.3,64,77.3z M43,20.7c-6.1,5.7-9.5,13.8-9.5,22.1     c0,16.8,13.7,30.5,30.5,30.5c16.8,0,30.5-13.7,30.5-30.5c0-8.4-3.5-16.4-9.5-22.1H43z" fill="#62345B"/></g></g><g><path d="M64,111.3c-1.1,0-2-0.9-2-2v-33c0-1.1,0.9-2,2-2s2,0.9,2,2v33C66,110.4,65.1,111.3,64,111.3z" fill="#62345B"/></g><g><path d="M84,111.3H44c-1.1,0-2-0.9-2-2s0.9-2,2-2h40c1.1,0,2,0.9,2,2S85.1,111.3,84,111.3z" fill="#62345B"/></g><g opacity="0.8"><path d="M41.2,58.3c-0.7,0-1.3-0.3-1.7-1c-2.6-4.4-4-9.4-4-14.5c0-7.3,2.7-14.2,7.7-19.5c0.8-0.8,2-0.8,2.8-0.1    c0.8,0.8,0.8,2,0.1,2.8c-4.3,4.6-6.6,10.5-6.6,16.8c0,4.4,1.2,8.7,3.4,12.5c0.6,0.9,0.3,2.2-0.7,2.7    C41.9,58.3,41.6,58.3,41.2,58.3z" fill="#FFFFFF"/></g></g></svg>