<?xml version="1.0" ?><!DOCTYPE svg  PUBLIC '-//W3C//DTD SVG 1.1//EN'  'http://www.w3.org/Graphics/SVG/1.1/DTD/svg11.dtd'><svg enable-background="new 0 0 128 128" id="Слой_1" version="1.1" viewBox="0 0 128 128" xml:space="preserve" xmlns="http://www.w3.org/2000/svg" xmlns:xlink="http://www.w3.org/1999/xlink"><g><g><path d="M43.4,27L43.4,27c-3.5,14.1-2.9,28.9,1.9,42.7l0,0c3.7,10.7,5.2,22.1,4.3,33.4L48.8,114h33.7l-0.8-10.9    c-0.9-11.3,0.6-22.7,4.3-33.4l0,0c4.8-13.7,5.4-28.6,1.9-42.7l0,0H43.4z" fill="#FBB161"/></g><g><g><polygon fill="#EAF3FB" points="48.8,114 82.5,114 81.7,103.2 49.6,103.2    "/></g><g><polygon fill="#FBB161" points="48.8,103.2 49.6,103.2 49.6,103.1    "/></g><g><polygon fill="#FBB161" points="81.6,103.1 81.7,103.2 82.5,103.2    "/></g></g><g><path d="M89.5,35.5c-0.4-2.9-0.9-5.7-1.6-8.5H43.4c-0.7,2.8-1.2,5.7-1.6,8.5H89.5z" fill="#FFFFFF"/></g><g opacity="0.2"><g><path d="M87.9,27H77.1c3.5,14.1,3.9,28.9-0.8,42.7v0c-3.7,10.7-3,22.1-2.2,33.4l0.8,10.9h7.6l-0.8-10.9     c-0.9-11.3,0.6-22.7,4.3-33.4v0C90.7,55.9,91.4,41.1,87.9,27z" fill="#62345B"/></g></g><g><path d="M82.5,116H48.8c-0.6,0-1.1-0.2-1.5-0.6c-0.4-0.4-0.6-1-0.5-1.5l0.8-10.9c0.9-11.1-0.6-22.1-4.2-32.6    c-4.9-14.1-5.6-29.3-2-43.8c0.2-0.9,1-1.5,1.9-1.5h44.5c0.9,0,1.7,0.6,1.9,1.5c3.6,14.5,3,29.7-2,43.8    c-3.7,10.5-5.1,21.5-4.2,32.6l0.8,10.9c0,0.6-0.1,1.1-0.5,1.5C83.6,115.8,83,116,82.5,116z M50.9,112h29.4l-0.7-8.8    C78.8,91.6,80.2,80,84.1,69c4.5-12.9,5.2-26.7,2.2-40H44.9c-3,13.3-2.3,27.1,2.2,40c3.8,11.1,5.3,22.6,4.4,34.2L50.9,112z" fill="#62345B"/></g><g opacity="0.7"><path d="M52.8,71.6c-0.8,0-1.6-0.5-1.9-1.3C46,56.2,45.3,41,49,26.5c0.3-1.1,1.4-1.7,2.4-1.5    c1.1,0.3,1.7,1.4,1.5,2.4c-3.4,13.8-2.8,28.1,1.9,41.5c0.4,1-0.2,2.2-1.2,2.5C53.3,71.6,53,71.6,52.8,71.6z" fill="#FFFFFF"/></g><g><g><path d="M84.8,14H43.2c-3.6,0-6.5,2.9-6.5,6.5v0c0,3.6,2.9,6.5,6.5,6.5h37.9c1.9,0,3.4,1.5,3.4,3.4v0     c0,1.9,1.5,3.4,3.4,3.4l0,0c1.9,0,3.4-1.5,3.4-3.4v-9.9C91.3,16.9,88.4,14,84.8,14z" fill="#FFFFFF"/></g><g><path d="M87.9,35.8c-3,0-5.4-2.4-5.4-5.4c0-0.8-0.6-1.4-1.4-1.4H43.2c-4.7,0-8.5-3.8-8.5-8.5s3.8-8.5,8.5-8.5     h41.6c4.7,0,8.5,3.8,8.5,8.5v9.9C93.3,33.4,90.9,35.8,87.9,35.8z M43.2,16c-2.5,0-4.5,2-4.5,4.5c0,2.5,2,4.5,4.5,4.5h37.9     c3,0,5.4,2.4,5.4,5.4c0,0.8,0.6,1.4,1.4,1.4s1.4-0.6,1.4-1.4v-9.9c0-2.5-2-4.5-4.5-4.5H43.2z" fill="#62345B"/></g></g></g></svg>