<?xml version="1.0" ?><!DOCTYPE svg  PUBLIC '-//W3C//DTD SVG 1.1//EN'  'http://www.w3.org/Graphics/SVG/1.1/DTD/svg11.dtd'><svg enable-background="new 0 0 128 128" id="Слой_1" version="1.1" viewBox="0 0 128 128" xml:space="preserve" xmlns="http://www.w3.org/2000/svg" xmlns:xlink="http://www.w3.org/1999/xlink"><g><polygon fill="#F1F9FE" points="64,94 24,44 104,44  "/></g><g><polygon fill="#35B1C2" points="92,59 36,59 64,94  "/></g><g><path d="M83.6,46c-0.4,0-0.7-0.1-1.1-0.3c-0.9-0.6-1.2-1.8-0.6-2.8l15.4-24c0.6-0.9,1.8-1.2,2.8-0.6   c0.9,0.6,1.2,1.8,0.6,2.8l-15.4,24C84.9,45.7,84.3,46,83.6,46z" fill="#62345B"/></g><g opacity="0.5"><path d="M59,84.3c-0.4,0-0.7-0.1-1.1-0.3c-0.9-0.6-1.2-1.8-0.6-2.8l24.6-38.3c0.6-0.9,1.8-1.2,2.8-0.6   c0.9,0.6,1.2,1.8,0.6,2.8L60.7,83.4C60.3,84,59.7,84.3,59,84.3z" fill="#62345B"/></g><g><path d="M64,126c-1.1,0-2-0.9-2-2V94c0-1.1,0.9-2,2-2s2,0.9,2,2v30C66,125.1,65.1,126,64,126z" fill="#62345B"/></g><g><path d="M84,126H44c-1.1,0-2-0.9-2-2s0.9-2,2-2h40c1.1,0,2,0.9,2,2S85.1,126,84,126z" fill="#62345B"/></g><g><circle cx="65" cy="69.5" fill="#CCCC63" r="10"/></g><g><circle cx="58.3" cy="69.5" fill="#F16465" r="3.3"/></g><g><path d="M64,96c-0.6,0-1.2-0.3-1.6-0.8l-40-50c-0.5-0.6-0.6-1.4-0.2-2.1s1-1.1,1.8-1.1h80c0.8,0,1.5,0.4,1.8,1.1   s0.2,1.5-0.2,2.1l-40,50C65.2,95.7,64.6,96,64,96z M28.2,46L64,90.8L99.8,46H28.2z" fill="#62345B"/></g></svg>