<?xml version="1.0" ?><!DOCTYPE svg  PUBLIC '-//W3C//DTD SVG 1.1//EN'  'http://www.w3.org/Graphics/SVG/1.1/DTD/svg11.dtd'><svg enable-background="new 0 0 128 128" id="Слой_1" version="1.1" viewBox="0 0 128 128" xml:space="preserve" xmlns="http://www.w3.org/2000/svg" xmlns:xlink="http://www.w3.org/1999/xlink"><g><g><path d="M72.3,74.3c-1.1,0-2-0.9-2-2V39c0-1.1,0.9-2,2-2s2,0.9,2,2v33.3C74.3,73.4,73.4,74.3,72.3,74.3z" fill="#62345B"/></g><g><path d="M62.9,97.3h-1.2c-11.2,0-20.2-9.1-20.2-20.2v0c0-3.1,0.7-6.2,2.1-9l0,0c3.9-7.8,3.9-17,0-24.8L41.5,39    h41.7L81,43.3c-3.9,7.8-3.9,17,0,24.8l0,0c1.4,2.8,2.1,5.9,2.1,9v0C83.1,88.3,74.1,97.3,62.9,97.3z" fill="#35B1C2"/></g><g opacity="0.6"><path d="M52.1,57.6C52,57.6,52,57.6,52.1,57.6c-1.2,0-2-1-2-2.1c0.2-5.8-1.3-11-4.3-15.5c-0.6-0.9-0.4-2.2,0.5-2.8    c0.9-0.6,2.2-0.4,2.8,0.5c3.5,5.1,5.2,11.1,5,17.8C54,56.8,53.1,57.6,52.1,57.6z" fill="#FFFFFF"/></g><g opacity="0.2"><g><path d="M81,68.1c-3.9-7.8-3.9-17,0-24.8l2.1-4.3h-8.3l-2.1,4.3c-3.9,7.8-3.9,17,0,24.8v0c1.4,2.8,2.1,5.9,2.1,9     v0c0,10-7.2,18.2-16.7,19.9c1.2,0.2,2.3,0.3,3.6,0.3h1.2c11.2,0,20.2-9.1,20.2-20.2v0C83.1,74,82.4,70.9,81,68.1L81,68.1z" fill="#62345B"/></g></g><g><g opacity="0.7"><circle cx="55.2" cy="75.2" fill="#FFFFFF" r="2.1"/></g><g opacity="0.7"><circle cx="55.2" cy="83.6" fill="#FFFFFF" r="2.1"/></g><g opacity="0.7"><circle cx="63.5" cy="83.6" fill="#FFFFFF" r="2.1"/></g></g><g><path d="M62.9,99.3h-1.2c-12.3,0-22.2-10-22.2-22.2c0-3.4,0.8-6.9,2.3-9.9c3.6-7.2,3.6-15.8,0-23l-2.1-4.3    c-0.3-0.6-0.3-1.4,0.1-1.9c0.4-0.6,1-0.9,1.7-0.9h41.7c0.7,0,1.3,0.4,1.7,0.9c0.4,0.6,0.4,1.3,0.1,1.9l-2.1,4.3    c-3.6,7.2-3.6,15.8,0,23c1.5,3.1,2.3,6.5,2.3,9.9C85.1,89.4,75.2,99.3,62.9,99.3z M44.7,41l0.7,1.4c4.2,8.3,4.2,18.3,0,26.6    c-1.3,2.5-1.9,5.3-1.9,8.2c0,10,8.2,18.2,18.2,18.2h1.2c10,0,18.2-8.2,18.2-18.2c0-2.8-0.7-5.6-1.9-8.2c-4.2-8.3-4.2-18.3,0-26.6    l0.7-1.4H44.7z" fill="#62345B"/></g><g><path d="M54,41c-0.8,0-1.6-0.5-1.9-1.4l-7.6-22.8l-14.6,7.3c-1,0.5-2.2,0.1-2.7-0.9c-0.5-1-0.1-2.2,0.9-2.7    l16.7-8.3c0.5-0.3,1.1-0.3,1.7-0.1c0.5,0.2,0.9,0.7,1.1,1.2l8.3,25c0.3,1-0.2,2.2-1.3,2.5C54.4,41,54.2,41,54,41z" fill="#62345B"/></g><g><g><path d="M105.1,43L86.9,23l-27.1-1.1c-2.4,5.2,5.7,14.2,18.3,20S102.7,48.2,105.1,43z" fill="#F69286"/></g><g><path d="M96.4,48.6C96.4,48.6,96.4,48.6,96.4,48.6c-5.5,0-12.5-1.8-19.2-4.9C63.3,37.2,55,27.5,58,21     c0.3-0.7,1.1-1.2,1.9-1.2L86.9,21c0.5,0,1,0.3,1.4,0.6l18.3,20c0.5,0.6,0.7,1.5,0.3,2.2C105.5,46.9,101.8,48.6,96.4,48.6z      M61.4,23.9c0,4,6.8,11.1,17.5,16.1c6.2,2.9,12.6,4.5,17.5,4.5c2.8,0,4.9-0.5,6.1-1.5L85.9,25L61.4,23.9z" fill="#62345B"/></g><g opacity="0.3"><g><path d="M86.2,24.1l5.7,22.1c6.6,1,11.7,0,13.2-3.2L86.2,24.1z" fill="#62345B"/></g></g></g></g><g><path d="M62.9,116c-1.1,0-2-0.9-2-2V97.3c0-1.1,0.9-2,2-2s2,0.9,2,2V114C64.9,115.1,64,116,62.9,116z" fill="#62345B"/></g><g><path d="M79,116H45.6c-1.1,0-2-0.9-2-2s0.9-2,2-2H79c1.1,0,2,0.9,2,2S80.1,116,79,116z" fill="#62345B"/></g></svg>