<?xml version="1.0" ?><!DOCTYPE svg  PUBLIC '-//W3C//DTD SVG 1.1//EN'  'http://www.w3.org/Graphics/SVG/1.1/DTD/svg11.dtd'><svg enable-background="new 0 0 128 128" id="Слой_1" version="1.1" viewBox="0 0 128 128" xml:space="preserve" xmlns="http://www.w3.org/2000/svg" xmlns:xlink="http://www.w3.org/1999/xlink"><g><g><circle cx="82" cy="39" fill="#E5DC35" r="20"/></g><g><path d="M82,61c-12.1,0-22-9.9-22-22s9.9-22,22-22s22,9.9,22,22S94.1,61,82,61z M82,21c-9.9,0-18,8.1-18,18    s8.1,18,18,18s18-8.1,18-18S91.9,21,82,21z" fill="#62345B"/></g><g><g opacity="0.7"><path d="M80.2,31.1l-2.2-5.4c-0.5-1.2,0.3-2.6,1.6-2.8c1.7-0.2,3.3-0.2,5,0c1.3,0.2,2.1,1.5,1.6,2.8l-2.2,5.4     C83.2,32.7,80.8,32.7,80.2,31.1z" fill="#FFFFFF"/></g><g opacity="0.7"><path d="M86.3,32.1l2.2-5.4c0.5-1.2,2-1.6,3.1-0.8c1.4,1,2.5,2.2,3.6,3.6c0.8,1,0.4,2.6-0.8,3.1l-5.4,2.2     C87.3,35.4,85.6,33.7,86.3,32.1z" fill="#FFFFFF"/></g><g opacity="0.7"><path d="M89.9,37.2l5.4-2.2c1.2-0.5,2.6,0.3,2.8,1.6c0.2,1.7,0.2,3.3,0,5c-0.2,1.3-1.5,2.1-2.8,1.6l-5.4-2.2     C88.3,40.2,88.3,37.8,89.9,37.2z" fill="#FFFFFF"/></g><g opacity="0.7"><path d="M88.9,43.3l5.4,2.2c1.2,0.5,1.6,2,0.8,3.1c-1,1.4-2.2,2.5-3.6,3.6c-1,0.8-2.6,0.4-3.1-0.8l-2.2-5.4     C85.6,44.3,87.3,42.6,88.9,43.3z" fill="#FFFFFF"/></g><g opacity="0.7"><path d="M83.8,46.9l2.2,5.4c0.5,1.2-0.3,2.6-1.6,2.8c-1.7,0.2-3.3,0.2-5,0c-1.3-0.2-2.1-1.5-1.6-2.8l2.2-5.4     C80.8,45.3,83.2,45.3,83.8,46.9z" fill="#FFFFFF"/></g><g opacity="0.7"><path d="M77.7,45.9l-2.2,5.4c-0.5,1.2-2,1.6-3.1,0.8c-1.4-1-2.5-2.2-3.6-3.6c-0.8-1-0.4-2.6,0.8-3.1l5.4-2.2     C76.7,42.6,78.4,44.3,77.7,45.9z" fill="#FFFFFF"/></g><g opacity="0.7"><path d="M74.1,40.8l-5.4,2.2c-1.2,0.5-2.6-0.3-2.8-1.6c-0.2-1.7-0.2-3.3,0-5c0.2-1.3,1.5-2.1,2.8-1.6l5.4,2.2     C75.7,37.8,75.7,40.2,74.1,40.8z" fill="#FFFFFF"/></g><g opacity="0.7"><path d="M75.1,34.7l-5.4-2.2c-1.2-0.5-1.6-2-0.8-3.1c1-1.4,2.2-2.5,3.6-3.6c1-0.8,2.6-0.4,3.1,0.8l2.2,5.4     C78.4,33.7,76.7,35.4,75.1,34.7z" fill="#FFFFFF"/></g></g></g><g><g><path d="M72.3,74.3c-1.1,0-2-0.9-2-2V39c0-1.1,0.9-2,2-2s2,0.9,2,2v33.3C74.3,73.4,73.4,74.3,72.3,74.3z" fill="#62345B"/></g><g><path d="M62.9,97.3h-1.2c-11.2,0-20.2-9.1-20.2-20.2v0c0-3.1,0.7-6.2,2.1-9l0,0c3.9-7.8,3.9-17,0-24.8L41.5,39    h41.7L81,43.3c-3.9,7.8-3.9,17,0,24.8l0,0c1.4,2.8,2.1,5.9,2.1,9v0C83.1,88.3,74.1,97.3,62.9,97.3z" fill="#F9BFC3"/></g><g opacity="0.6"><path d="M52.1,57.6C52,57.6,52,57.6,52.1,57.6c-1.2,0-2-1-2-2.1c0.2-5.8-1.3-11-4.3-15.5c-0.6-0.9-0.4-2.2,0.5-2.8    c0.9-0.6,2.2-0.4,2.8,0.5c3.5,5.1,5.2,11.1,5,17.8C54,56.8,53.1,57.6,52.1,57.6z" fill="#FFFFFF"/></g><g opacity="0.2"><g><path d="M81,68.1c-3.9-7.8-3.9-17,0-24.8l2.1-4.3h-8.3l-2.1,4.3c-3.9,7.8-3.9,17,0,24.8v0c1.4,2.8,2.1,5.9,2.1,9     v0c0,10-7.2,18.2-16.7,19.9c1.2,0.2,2.3,0.3,3.6,0.3h1.2c11.2,0,20.2-9.1,20.2-20.2v0C83.1,74,82.4,70.9,81,68.1L81,68.1z" fill="#62345B"/></g></g><g><g opacity="0.7"><circle cx="55.2" cy="75.2" fill="#FFFFFF" r="2.1"/></g><g opacity="0.7"><circle cx="55.2" cy="83.6" fill="#FFFFFF" r="2.1"/></g><g opacity="0.7"><circle cx="63.5" cy="83.6" fill="#FFFFFF" r="2.1"/></g></g><g><path d="M62.9,99.3h-1.2c-12.3,0-22.2-10-22.2-22.2c0-3.4,0.8-6.9,2.3-9.9c3.6-7.2,3.6-15.8,0-23l-2.1-4.3    c-0.3-0.6-0.3-1.4,0.1-1.9c0.4-0.6,1-0.9,1.7-0.9h41.7c0.7,0,1.3,0.4,1.7,0.9c0.4,0.6,0.4,1.3,0.1,1.9l-2.1,4.3    c-3.6,7.2-3.6,15.8,0,23c1.5,3.1,2.3,6.5,2.3,9.9C85.1,89.4,75.2,99.3,62.9,99.3z M44.7,41l0.7,1.4c4.2,8.3,4.2,18.3,0,26.6    c-1.3,2.5-1.9,5.3-1.9,8.2c0,10,8.2,18.2,18.2,18.2h1.2c10,0,18.2-8.2,18.2-18.2c0-2.8-0.7-5.6-1.9-8.2c-4.2-8.3-4.2-18.2,0-26.6    l0.7-1.4H44.7z" fill="#62345B"/></g><g><path d="M54,41c-0.8,0-1.6-0.5-1.9-1.4L44.2,16H30.6c-1.1,0-2-0.9-2-2s0.9-2,2-2h15c0.9,0,1.6,0.6,1.9,1.4l8.3,25    c0.3,1-0.2,2.2-1.3,2.5C54.4,41,54.2,41,54,41z" fill="#62345B"/></g></g><g><path d="M62.9,116c-1.1,0-2-0.9-2-2V97.3c0-1.1,0.9-2,2-2s2,0.9,2,2V114C64.9,115.1,64,116,62.9,116z" fill="#62345B"/></g><g><path d="M79,116H45.6c-1.1,0-2-0.9-2-2s0.9-2,2-2H79c1.1,0,2,0.9,2,2S80.1,116,79,116z" fill="#62345B"/></g></svg>