<?xml version="1.0" ?><!DOCTYPE svg  PUBLIC '-//W3C//DTD SVG 1.1//EN'  'http://www.w3.org/Graphics/SVG/1.1/DTD/svg11.dtd'><svg enable-background="new 0 0 128 128" id="Слой_1" version="1.1" viewBox="0 0 128 128" xml:space="preserve" xmlns="http://www.w3.org/2000/svg" xmlns:xlink="http://www.w3.org/1999/xlink"><g opacity="0.5"><g><polygon fill="#F1F9FE" points="85.3,95.2 123.7,47.1 46.8,47.1   "/></g><g><polygon fill="#35B1C2" points="115.7,57.1 54.8,57.1 85.3,95.2   "/></g><g><path d="M85.3,126c-1.1,0-2-0.9-2-2V95.2c0-1.1,0.9-2,2-2s2,0.9,2,2V124C87.3,125.1,86.4,126,85.3,126z" fill="#62345B"/></g><g><path d="M104.5,126H66c-1.1,0-2-0.9-2-2s0.9-2,2-2h38.5c1.1,0,2,0.9,2,2S105.6,126,104.5,126z" fill="#62345B"/></g><g><path d="M85.3,97.2c-0.6,0-1.2-0.3-1.6-0.8L45.2,48.3c-0.5-0.6-0.6-1.4-0.2-2.1s1-1.1,1.8-1.1h76.9    c0.8,0,1.5,0.4,1.8,1.1s0.2,1.5-0.2,2.1L86.8,96.4C86.5,96.9,85.9,97.2,85.3,97.2z M51,49.1L85.3,92l34.3-42.9H51z" fill="#62345B"/></g><g><g><path d="M128,41.1l-18.3-20L82.7,20c-2.4,5.2,5.7,14.2,18.3,20S125.6,46.3,128,41.1z" fill="#F69286"/></g><g><path d="M119.3,46.7C119.3,46.7,119.3,46.7,119.3,46.7c-5.5,0-12.5-1.8-19.2-4.9c-14-6.5-22.2-16.2-19.2-22.7     c0.3-0.7,1.1-1.2,1.9-1.2l27.1,1.1c0.5,0,1,0.3,1.4,0.6l18.3,20c0.5,0.6,0.7,1.5,0.3,2.2C128.4,45,124.7,46.7,119.3,46.7z      M84.3,22.1c0,4,6.8,11.1,17.5,16.1c6.2,2.9,12.6,4.5,17.5,4.5c0,0,0,0,0,0c2.8,0,4.9-0.5,6.1-1.5l-16.6-18.2L84.3,22.1z" fill="#62345B"/></g><g opacity="0.3"><g><path d="M109.1,22.3l5.7,22.1c6.6,1,11.7,0,13.2-3.2L109.1,22.3z" fill="#62345B"/></g></g></g><g opacity="0.5"><path d="M87.3,80.2c-0.2,0-0.5,0-0.7-0.1c-1-0.4-1.5-1.6-1.1-2.6l12.2-31.1c0.4-1,1.6-1.5,2.6-1.1    c1,0.4,1.5,1.6,1.1,2.6L89.2,78.9C88.9,79.7,88.1,80.2,87.3,80.2z" fill="#62345B"/></g><g><path d="M99.6,49.1c-0.2,0-0.5,0-0.7-0.1c-1-0.4-1.5-1.6-1.1-2.6l2.6-6.5c0.4-1,1.6-1.5,2.6-1.1    c1,0.4,1.5,1.6,1.1,2.6l-2.6,6.5C101.1,48.6,100.4,49.1,99.6,49.1z" fill="#62345B"/></g></g><g><g><g><circle cx="62.9" cy="41.5" fill="#E5DC35" r="22"/></g><g><path d="M62.9,65.5c-13.2,0-24-10.8-24-24s10.8-24,24-24s24,10.8,24,24S76.2,65.5,62.9,65.5z M62.9,21.5     c-11,0-20,9-20,20s9,20,20,20s20-9,20-20S74,21.5,62.9,21.5z" fill="#62345B"/></g><g><g opacity="0.7"><path d="M60.9,32.8l-2.5-5.9c-0.6-1.3,0.3-2.8,1.8-3c1.8-0.3,3.7-0.3,5.5,0c1.4,0.2,2.3,1.7,1.8,3L65,32.8      C64.2,34.6,61.7,34.6,60.9,32.8z" fill="#FFFFFF"/></g><g opacity="0.7"><path d="M67.7,33.9l2.5-5.9c0.5-1.3,2.2-1.8,3.4-0.9c1.5,1.1,2.8,2.4,3.9,3.9c0.9,1.1,0.4,2.8-0.9,3.4l-5.9,2.5      C68.7,37.5,66.9,35.7,67.7,33.9z" fill="#FFFFFF"/></g><g opacity="0.7"><path d="M71.7,39.5l5.9-2.5c1.3-0.6,2.8,0.3,3,1.8c0.3,1.8,0.3,3.7,0,5.5c-0.2,1.4-1.7,2.3-3,1.8l-5.9-2.5      C69.8,42.8,69.8,40.2,71.7,39.5z" fill="#FFFFFF"/></g><g opacity="0.7"><path d="M70.5,46.2l5.9,2.5c1.3,0.5,1.8,2.2,0.9,3.4c-1.1,1.5-2.4,2.8-3.9,3.9c-1.1,0.9-2.8,0.4-3.4-0.9      l-2.5-5.9C66.9,47.3,68.7,45.5,70.5,46.2z" fill="#FFFFFF"/></g><g opacity="0.7"><path d="M65,50.2l2.5,5.9c0.6,1.3-0.3,2.8-1.8,3c-1.8,0.3-3.7,0.3-5.5,0c-1.4-0.2-2.3-1.7-1.8-3l2.5-5.9      C61.7,48.4,64.2,48.4,65,50.2z" fill="#FFFFFF"/></g><g opacity="0.7"><path d="M58.2,49.1L55.8,55c-0.5,1.3-2.2,1.8-3.4,0.9c-1.5-1.1-2.8-2.4-3.9-3.9c-0.9-1.1-0.4-2.8,0.9-3.4      l5.9-2.5C57.2,45.5,59,47.3,58.2,49.1z" fill="#FFFFFF"/></g><g opacity="0.7"><path d="M54.2,43.5L48.3,46c-1.3,0.6-2.8-0.3-3-1.8c-0.3-1.8-0.3-3.7,0-5.5c0.2-1.4,1.7-2.3,3-1.8l5.9,2.5      C56,40.2,56,42.8,54.2,43.5z" fill="#FFFFFF"/></g><g opacity="0.7"><path d="M55.3,36.8l-5.9-2.5c-1.3-0.5-1.8-2.2-0.9-3.4c1.1-1.5,2.4-2.8,3.9-3.9c1.1-0.9,2.8-0.4,3.4,0.9l2.5,5.9      C59,35.7,57.2,37.5,55.3,36.8z" fill="#FFFFFF"/></g></g></g><g><g><path d="M52.3,80.2c-1.1,0-2-0.9-2-2V41.5c0-1.1,0.9-2,2-2s2,0.9,2,2v36.7C54.3,79.3,53.4,80.2,52.3,80.2z" fill="#62345B"/></g><g><path d="M41.9,105.7h-1.3c-12.3,0-22.2-10-22.2-22.2v0c0-3.5,0.8-6.9,2.4-10l0,0c4.3-8.6,4.3-18.7,0-27.3     l-2.4-4.7h45.8l-2.4,4.7c-4.3,8.6-4.3,18.7,0,27.3l0,0c1.5,3.1,2.4,6.5,2.4,10v0C64.2,95.7,54.2,105.7,41.9,105.7z" fill="#F9BFC3"/></g><g opacity="0.6"><path d="M30,61.8C30,61.8,30,61.8,30,61.8c-1.2,0-2-1-2-2.1c0.2-6.4-1.4-12.2-4.8-17.1c-0.6-0.9-0.4-2.2,0.5-2.8     c0.9-0.6,2.2-0.4,2.8,0.5c3.9,5.6,5.7,12.2,5.5,19.5C32,60.9,31.1,61.8,30,61.8z" fill="#FFFFFF"/></g><g opacity="0.2"><g><path d="M61.8,73.5c-4.3-8.6-4.3-18.7,0-27.3l2.4-4.7H55l-2.4,4.7c-4.3,8.6-4.3,18.7,0,27.3v0      c1.5,3.1,2.4,6.5,2.4,10v0c0,11-7.9,20-18.3,21.9c1.3,0.2,2.6,0.4,3.9,0.4h1.3c12.3,0,22.2-10,22.2-22.2v0      C64.2,80,63.4,76.6,61.8,73.5L61.8,73.5z" fill="#62345B"/></g></g><g><g opacity="0.7"><circle cx="33.5" cy="81.4" fill="#FFFFFF" r="2.3"/></g><g opacity="0.7"><circle cx="33.5" cy="90.5" fill="#FFFFFF" r="2.3"/></g><g opacity="0.7"><circle cx="42.6" cy="90.5" fill="#FFFFFF" r="2.3"/></g></g><g><path d="M41.9,107.7h-1.3c-13.4,0-24.2-10.9-24.2-24.2c0-3.7,0.9-7.5,2.6-10.8c4-8,4-17.5,0-25.5l-2.4-4.7     c-0.3-0.6-0.3-1.4,0.1-1.9c0.4-0.6,1-0.9,1.7-0.9h45.8c0.7,0,1.3,0.4,1.7,0.9c0.4,0.6,0.4,1.3,0.1,1.9l-2.4,4.7     c-4,8-4,17.5,0,25.5c1.7,3.3,2.6,7.1,2.6,10.8C66.2,96.8,55.3,107.7,41.9,107.7z M21.6,43.5l0.9,1.8c4.5,9.1,4.5,20,0,29     c-1.4,2.8-2.1,5.9-2.1,9.1c0,11.2,9.1,20.2,20.2,20.2h1.3c11.2,0,20.2-9.1,20.2-20.2c0-3.1-0.7-6.3-2.1-9.1c-4.5-9.1-4.5-20,0-29     l0.9-1.8H21.6z" fill="#62345B"/></g><g><path d="M32.1,43.5c-0.8,0-1.6-0.5-1.9-1.4L21.5,16H6.4c-1.1,0-2-0.9-2-2s0.9-2,2-2h16.5c0.9,0,1.6,0.6,1.9,1.4     L34,40.9c0.3,1-0.2,2.2-1.3,2.5C32.5,43.5,32.3,43.5,32.1,43.5z" fill="#62345B"/></g></g><g><path d="M41.9,126c-1.1,0-2-0.9-2-2v-18.3c0-1.1,0.9-2,2-2s2,0.9,2,2V124C43.9,125.1,43,126,41.9,126z" fill="#62345B"/></g><g><path d="M59.6,126H22.9c-1.1,0-2-0.9-2-2s0.9-2,2-2h36.7c1.1,0,2,0.9,2,2S60.7,126,59.6,126z" fill="#62345B"/></g></g></svg>