<?xml version="1.0" ?><!DOCTYPE svg  PUBLIC '-//W3C//DTD SVG 1.1//EN'  'http://www.w3.org/Graphics/SVG/1.1/DTD/svg11.dtd'><svg enable-background="new 0 0 128 128" id="Слой_1" version="1.1" viewBox="0 0 128 128" xml:space="preserve" xmlns="http://www.w3.org/2000/svg" xmlns:xlink="http://www.w3.org/1999/xlink"><g><g><g><g><path d="M111.3,122.4H69.6V46.8c0-3.5,1.8-6.7,4.8-8.6l5.1-3.1c3-1.8,4.8-5.1,4.8-8.6V15.3h-1.1V9.6h14.7v5.6      h-1.1v11.3c0,3.5,1.8,6.7,4.8,8.6l5.1,3.1c3,1.8,4.8,5.1,4.8,8.6V122.4z" fill="#F1F9FE"/></g><g><rect fill="#D8D7D1" height="5.6" width="14.7" x="83.2" y="9.6"/></g><g><path d="M111.3,122.4H69.6V46.8c0-3.5,1.8-6.7,4.8-8.6l5.1-3.1c3-1.8,4.8-5.1,4.8-8.6v0h12.4v0      c0,3.5,1.8,6.7,4.8,8.6l5.1,3.1c3,1.8,4.8,5.1,4.8,8.6V122.4z" fill="#B3E1E7"/></g><g opacity="0.2"><path d="M111.3,46.8c0-3.5-1.8-6.7-4.8-8.6l-5.1-3.1c-3-1.8-4.8-5.1-4.8-8.6V15.3h1.1V9.6h-3.4v5.6h-1.1v11.3      c0,3.5-0.4,7.9,2.5,9.7l5.1,3.1c3,1.8,4.8,5.1,4.8,8.6v74.4h5.6V46.8z" fill="#62345B"/></g><g><rect fill="#645F5A" height="5.6" width="20.3" x="80.3" y="99.8"/></g><g><rect fill="#54C6D8" height="6.8" width="27.1" x="77" y="54.2"/></g><g><rect fill="#54C6D8" height="4.5" width="18" x="81.5" y="66.6"/></g><g><path d="M111.3,124.4H69.6c-1.1,0-2-0.9-2-2V46.8c0-4.2,2.2-8.1,5.7-10.3l5.1-3.1c2.4-1.5,3.8-4.1,3.8-6.9v-9.5      c-0.7-0.3-1.1-1-1.1-1.8V9.6c0-1.1,0.9-2,2-2h14.7c1.1,0,2,0.9,2,2v5.6c0,0.8-0.5,1.5-1.1,1.8v9.5c0,2.8,1.5,5.4,3.8,6.9      l5.1,3.1c3.5,2.2,5.7,6.1,5.7,10.3v75.5C113.3,123.5,112.4,124.4,111.3,124.4z M71.6,120.4h37.7V46.8c0-2.8-1.5-5.4-3.8-6.9      l-5.1-3.1c-3.5-2.2-5.7-6.1-5.7-10.3V15.3c0-0.8,0.5-1.5,1.1-1.8v-1.8H85.2v1.8c0.7,0.3,1.1,1,1.1,1.8v11.3      c0,4.2-2.2,8.1-5.7,10.3l-5.1,3.1c-2.4,1.5-3.8,4.1-3.8,6.9V120.4z" fill="#62345B"/></g><g><path d="M97.8,17.3H83.2c-1.1,0-2-0.9-2-2s0.9-2,2-2h14.7c1.1,0,2,0.9,2,2S98.9,17.3,97.8,17.3z" fill="#62345B"/></g></g></g><g><g><g><g><path d="M57.2,122.4H22.3c-3.1,0-5.6-2.5-5.6-5.6V61.5c0-6.9,1.8-10.2,4.7-12.1l7.6-5c2.9-1.9,4.7-5.2,4.7-8.7       v-7.9h-2.3v-9h16.9v9H46v7.9c0,3.5,1.8,6.8,4.7,8.7l7.6,5c2.9,1.9,4.7,5.2,4.7,12.1v55.3C62.9,119.8,60.4,122.4,57.2,122.4z" fill="#27A249"/></g><g><rect fill="#24763B" height="9" width="16.9" x="31.3" y="18.7"/></g><g><rect fill="#FFFFFF" height="3.4" width="16.9" x="31.3" y="18.7"/></g><g><path d="M57.2,122.4H22.3c-3.1,0-5.6-2.5-5.6-5.6V61.5c0-6.9,1.8-10.2,4.7-12.1l7.6-5h21.8l7.6,5       c2.9,1.9,4.7,5.2,4.7,12.1v55.3C62.9,119.8,60.4,122.4,57.2,122.4z" fill="#2B4C26"/></g><g><path d="M17.8,114.5h44V66c0-6.2-5-11.3-11.3-11.3H29.1c-6.2,0-11.3,5-11.3,11.3V114.5z" fill="#FFFFFF"/></g><g><path d="M58.7,111.5H20.8V66c0-4.6,3.7-8.3,8.3-8.3h21.4c4.6,0,8.3,3.7,8.3,8.3V111.5z M23.8,108.5h31.9V66       c0-2.9-2.4-5.3-5.3-5.3H29.1c-2.9,0-5.3,2.4-5.3,5.3V108.5z" fill="#27A249"/></g><g opacity="0.3"><g><path d="M58.2,49.3l-7.6-5c-2.9-1.9-4.7-5.2-4.7-8.7v-7.9h2.3v-9h-4.5v9h0v7.9c0,3.5,1.8,9,4.7,11l3,2.8        c2.9,1.9,3.6,5.2,3.6,12.1v60.9h2.3c3.1,0,5.6-2.5,5.6-5.6V61.5C62.9,54.6,61.1,51.3,58.2,49.3z" fill="#62345B"/></g></g><g><path d="M57.2,124.4H22.3c-4.2,0-7.6-3.4-7.6-7.6V61.5c0-7,1.7-11.2,5.6-13.8l7.6-5c2.4-1.6,3.8-4.2,3.8-7.1       v-5.9h-0.3c-1.1,0-2-0.9-2-2v-9c0-1.1,0.9-2,2-2h16.9c1.1,0,2,0.9,2,2v9c0,1.1-0.9,2-2,2H48v5.9c0,2.9,1.4,5.5,3.8,7.1l7.6,5       c3.9,2.6,5.6,6.8,5.6,13.8v55.3C64.9,120.9,61.5,124.4,57.2,124.4z M33.3,25.7h0.3c1.1,0,2,0.9,2,2v7.9c0,4.2-2.1,8.1-5.6,10.4       l-7.6,5c-1.9,1.2-3.8,3.5-3.8,10.5v55.3c0,2,1.6,3.6,3.6,3.6h34.9c2,0,3.6-1.6,3.6-3.6V61.5c0-7-1.9-9.2-3.8-10.5l-7.6-5       C46,43.6,44,39.8,44,35.6v-7.9c0-1.1,0.9-2,2-2h0.3v-5H33.3V25.7z" fill="#62345B"/></g><g><path d="M48.2,29.7H31.3c-1.1,0-2-0.9-2-2s0.9-2,2-2h16.9c1.1,0,2,0.9,2,2S49.3,29.7,48.2,29.7z" fill="#62345B"/></g></g></g><g><circle cx="39.8" cy="71.5" fill="#934441" r="8.5"/></g><g><rect fill="#F16570" height="10.1" width="30.4" x="24.5" y="84"/></g></g><g opacity="0.3"><g><path d="M94.4,55.7c0-8-4.4-15.2-11.6-18.7c-0.6-0.3-1.1-0.7-1.4-1.2c-0.5-0.7-0.8-1.9-0.6-3l0.1-1c0,0,0,0,0,0     c-0.6,0.8-1.3,1.4-2.2,2l-5.1,3.1c-3.4,2.1-5.6,5.9-5.6,10v75.5c0,0.9,0.7,1.6,1.6,1.6h22.7c1.3-2.1,2.1-4.6,2.1-7.3V55.7z" fill="#62345B"/></g><g><path d="M64.5,116.7V61.5c0-6.8-1.7-11-5.4-13.5l-7.6-5c-2.1-1.4-3.5-3.7-3.9-6.1c-0.1,0-0.2,0.1-0.2,0.2     c-7.1,3.6-11.6,10.7-11.6,18.7v61c0,2.7,0.8,5.2,2.1,7.3h19.3C61.3,124,64.5,120.7,64.5,116.7z" fill="#62345B"/></g></g><g><g><g><path d="M80.3,122.4H49.9c-3.1,0-5.6-2.5-5.6-5.6v-61c0-4.8,2.7-9.1,6.9-11.2l0,0c1.7-0.9,3.2-2.1,4.4-3.6      c2-2.6,2.7-5.9,2.3-9.2l-0.1-1c-0.6-4.5-0.2-11.7,0.8-16.1l0.4-1.6h-2.3V4h16.9v9h-2.3l0.4,1.6c1,4.4,1.4,11.6,0.8,16.1l-0.1,1      c-0.4,3.2,0.3,6.6,2.3,9.2c1.1,1.5,2.6,2.7,4.4,3.6l0,0c4.3,2.1,6.9,6.5,6.9,11.2v61C86,119.8,83.5,122.4,80.3,122.4z" fill="#FBB161"/></g><g><rect fill="#66625D" height="48.5" width="41.7" x="44.3" y="66"/></g><g><circle cx="65.1" cy="88.4" fill="#FFFFFF" r="8.5"/></g><g><g><path d="M72.4,31.7c0.6-4.6,0.3-12.6-0.7-17L71.3,13h2.3V4H56.7v9h2.3l-0.4,1.6c-1,4.5-1.3,12.5-0.7,17       c0.2,1.3,0.1,2.6-0.1,3.9h14.7C72.2,34.3,72.2,33,72.4,31.7z" fill="#66625D"/></g></g><g opacity="0.2"><g><path d="M79,44.5c-1.7-0.9-3.2-2.1-4.4-3.6c-2-2.6-2.7-5.9-2.3-9.2l0.1-1c0.6-4.5,0.2-11.7-0.8-16.1L71.3,13       h2.3V4h-3.4v9h-2.3l0.4,1.6c1,4.4,1.4,11.6,0.8,16.1l-0.1,1c-0.4,3.2,0.1,6.7,2.3,9.2c4.2,4.7,7.9,6.9,7.9,14.8v61       c0,3.1-2.5,5.6-5.6,5.6h6.8c3.1,0,5.6-2.5,5.6-5.6v-61C86,50.9,83.3,46.6,79,44.5z" fill="#62345B"/></g></g><g><path d="M80.3,124.4H49.9c-4.2,0-7.6-3.4-7.6-7.6v-61c0-5.5,3.1-10.5,8-13c1.4-0.7,2.7-1.8,3.7-3      c1.6-2,2.3-4.9,1.9-7.7l-0.1-1c-0.6-4.4-0.2-11.4,0.7-16c-1-0.1-1.8-1-1.8-2V4c0-1.1,0.9-2,2-2h16.9c1.1,0,2,0.9,2,2v9      c0,1-0.8,1.9-1.8,2c0.9,4.6,1.2,11.6,0.7,16l-0.1,1c-0.4,2.8,0.3,5.7,1.9,7.7c1,1.3,2.2,2.3,3.7,3c5,2.5,8,7.5,8,13v61      C88,120.9,84.6,124.4,80.3,124.4z M58.7,11h0.3c0.6,0,1.2,0.3,1.6,0.8c0.4,0.5,0.5,1.1,0.4,1.7l-0.4,1.6      c-0.9,4.1-1.3,11.2-0.8,15.4l0.1,1c0.5,3.9-0.5,7.7-2.7,10.6c-1.3,1.8-3.1,3.2-5.1,4.2c-3.6,1.8-5.8,5.4-5.8,9.4v61      c0,2,1.6,3.6,3.6,3.6h30.4c2,0,3.6-1.6,3.6-3.6v-61c0-4-2.2-7.6-5.8-9.4c-2-1-3.7-2.4-5.1-4.2c-2.2-2.9-3.2-6.7-2.7-10.6l0.1-1      c0.5-4.2,0.2-11.2-0.8-15.4l-0.4-1.6c-0.1-0.6,0-1.2,0.4-1.7c0.4-0.5,1-0.8,1.6-0.8h0.3V6H58.7V11z" fill="#62345B"/></g><g><path d="M73.6,15H56.7c-1.1,0-2-0.9-2-2s0.9-2,2-2h16.9c1.1,0,2,0.9,2,2S74.7,15,73.6,15z" fill="#62345B"/></g></g></g><g><rect fill="#FFFFFF" height="5.6" width="20.3" x="55" y="99.8"/></g><g><path d="M73.1,80.4l4-4c-6.6-6.6-17.3-6.6-23.9,0l4,4C61.6,76,68.7,76,73.1,80.4z" fill="#FFFFFF"/></g><g opacity="0.3"><ellipse cx="53.8" cy="48.7" fill="#FFFFFF" rx="2.9" ry="1.3" transform="matrix(0.8634 -0.5045 0.5045 0.8634 -17.2274 33.7905)"/></g></g></svg>