<?xml version="1.0" ?><!DOCTYPE svg  PUBLIC '-//W3C//DTD SVG 1.1//EN'  'http://www.w3.org/Graphics/SVG/1.1/DTD/svg11.dtd'><svg enable-background="new 0 0 128 128" id="Слой_1" version="1.1" viewBox="0 0 128 128" xml:space="preserve" xmlns="http://www.w3.org/2000/svg" xmlns:xlink="http://www.w3.org/1999/xlink"><g><g><g><polygon fill="#F1F9FE" points="76,110.6 52,110.6 46,40.6 82,40.6    "/></g><g><path d="M64,90.6L64,90.6c-8.3,0-15-6.7-15-15l-2-25h34l-2,25C79,83.9,72.3,90.6,64,90.6z" fill="#D8D7D1"/></g><g opacity="0.8"><path d="M57,82.6c-1.1,0-1.9-0.8-2-1.9l-2-40c-0.1-1.1,0.8-2,1.9-2.1c1.1,0,2,0.8,2.1,1.9l2,40     c0.1,1.1-0.8,2-1.9,2.1C57.1,82.6,57,82.6,57,82.6z" fill="#FFFFFF"/></g><g opacity="0.2"><g><polygon fill="#62345B" points="74,40.6 71,110.6 76,110.6 82,40.6     "/></g></g><g><path d="M76,112.6H52c-1,0-1.9-0.8-2-1.8l-6-70c0-0.6,0.1-1.1,0.5-1.5s0.9-0.6,1.5-0.6h36c0.6,0,1.1,0.2,1.5,0.6     s0.6,1,0.5,1.5l-6,70C77.9,111.8,77,112.6,76,112.6z M53.8,108.6h20.3l5.7-66H48.2L53.8,108.6z" fill="#62345B"/></g></g></g><g><g><g><polygon fill="#F1F9FE" points="76,110.6 52,110.6 46,40.6 82,40.6    "/></g><g><path d="M64,90.6L64,90.6c-8.3,0-15-6.7-15-15l-2-25h34l-2,25C79,83.9,72.3,90.6,64,90.6z" fill="#D8D7D1"/></g><g opacity="0.8"><path d="M57,82.6c-1.1,0-1.9-0.8-2-1.9l-2-40c-0.1-1.1,0.8-2,1.9-2.1c1.1,0,2,0.8,2.1,1.9l2,40     c0.1,1.1-0.8,2-1.9,2.1C57.1,82.6,57,82.6,57,82.6z" fill="#FFFFFF"/></g><g opacity="0.2"><g><polygon fill="#62345B" points="74,40.6 71,110.6 76,110.6 82,40.6     "/></g></g><g><path d="M76,112.6H52c-1,0-1.9-0.8-2-1.8l-6-70c0-0.6,0.1-1.1,0.5-1.5s0.9-0.6,1.5-0.6h36c0.6,0,1.1,0.2,1.5,0.6     s0.6,1,0.5,1.5l-6,70C77.9,111.8,77,112.6,76,112.6z M53.8,108.6h20.3l5.7-66H48.2L53.8,108.6z" fill="#62345B"/></g></g></g></svg>