<?xml version="1.0" ?><!DOCTYPE svg  PUBLIC '-//W3C//DTD SVG 1.1//EN'  'http://www.w3.org/Graphics/SVG/1.1/DTD/svg11.dtd'><svg enable-background="new 0 0 128 128" id="Слой_1" version="1.1" viewBox="0 0 128 128" xml:space="preserve" xmlns="http://www.w3.org/2000/svg" xmlns:xlink="http://www.w3.org/1999/xlink"><g><path d="M95.8,49.3c17.6,17.6,17.6,41.1,0,58.6s-46.1,17.6-63.6,0s-17.6-41.1,0-58.6C45.8,35.8,82.2,35.8,95.8,49.3   z" fill="#A05D53"/></g><g opacity="0.2"><g><path d="M95.8,49.3c-7.7-7.7-22.7-11-36.8-10c10.8,0.8,20.9,4.1,26.8,10c17.6,17.6,17.6,41.1,0,58.6    c-7.5,7.5-17,11.8-26.8,12.9c13.1,1.5,26.8-2.8,36.8-12.9C113.4,90.4,113.4,66.9,95.8,49.3z" fill="#62345B"/></g></g><g><path d="M64,123.2c-12.6,0-24.4-4.9-33.2-13.8c-9-9-13.8-19.6-13.8-30.7c0-11.1,4.8-21.7,13.8-30.7   c6.7-6.7,19.2-10.8,33.2-10.8c14.1,0,26.5,4,33.2,10.8c9,9,13.8,19.6,13.8,30.7c0,11.1-4.8,21.7-13.8,30.7   C88.4,118.3,76.6,123.2,64,123.2z M64,41.2c-12.8,0-24.5,3.7-30.4,9.6C25.4,59,21,68.6,21,78.7c0,10,4.4,19.7,12.6,27.9   c8.1,8.1,18.9,12.6,30.4,12.6c11.5,0,22.3-4.5,30.4-12.6c8.2-8.2,12.6-17.9,12.6-27.9c0-10-4.4-19.7-12.6-27.9   C88.5,44.8,76.8,41.2,64,41.2z" fill="#62345B"/></g><g><path d="M95.8,49.3c17.6,17.6-7.8,27-31.8,26.8c-24.9-0.2-49.4-9.2-31.8-26.8C45.8,35.8,82.2,35.8,95.8,49.3z" fill="#FFFFFF"/></g><g opacity="0.15"><path d="M32.2,69.3c7.1,4.5,19.4,6.8,31.8,6.9c12.1,0.1,24.6-2.3,31.7-6.9C82.1,55.8,45.8,55.8,32.2,69.3z" fill="#62345B"/></g><g><path d="M64.8,78.2l-0.9,0C48.6,78,29.1,74.3,25,64.2c-2-5-0.1-10.4,5.8-16.3c6.7-6.7,19.2-10.8,33.2-10.8   c14.1,0,26.5,4,33.2,10.8c7.2,7.2,7.1,12.9,5.6,16.3C98.9,73.9,80.9,78.2,64.8,78.2z M64,41.2c-12.8,0-24.5,3.7-30.4,9.6   c-4.6,4.6-6.3,8.6-4.9,12C31.4,69.3,45.9,74,64,74.2l0.8,0c17.1,0,31.6-4.8,34.3-11.4c1.4-3.4-0.2-7.4-4.8-12   C88.5,44.8,76.8,41.2,64,41.2z" fill="#62345B"/></g><g><path d="M57.2,77.9c-1,0-1.8-0.7-2-1.7L44.8,7l-17.5,8.8c-1,0.5-2.2,0.1-2.7-0.9c-0.5-1-0.1-2.2,0.9-2.7l20-10   c0.6-0.3,1.2-0.3,1.8,0c0.6,0.3,1,0.8,1.1,1.5l10.8,71.9c0.2,1.1-0.6,2.1-1.7,2.3C57.4,77.9,57.3,77.9,57.2,77.9z" fill="#62345B"/></g><g><g><path d="M112.7,38.8l-21.9-24l-32.5-1.3c-2.9,6.3,6.9,17,21.9,24S109.8,45.1,112.7,38.8z" fill="#E5DC35"/></g><g opacity="0.7"><path d="M90,16.2l-31.7-2.7c-0.7,1.6-0.7,3.4,0.1,5.4L90,16.2z" fill="#FFFFFF"/></g><g><path d="M102.3,45.1C102.3,45.1,102.3,45.1,102.3,45.1c-6.6,0-14.9-2.1-22.9-5.9C62.9,31.6,53,20.1,56.5,12.6    c0.3-0.7,1.1-1.2,1.9-1.2l32.5,1.3c0.5,0,1,0.3,1.4,0.6l21.9,24c0.5,0.6,0.7,1.5,0.3,2.2C112.9,43.2,108.5,45.1,102.3,45.1z     M59.8,15.5c-0.4,4.9,7.5,13.7,21.3,20.1c7.5,3.5,15.2,5.5,21.2,5.5c0,0,0,0,0,0c3.7,0,6.5-0.8,7.9-2.1L89.9,16.8L59.8,15.5z" fill="#62345B"/></g><g opacity="0.3"><g><path d="M90,16.2l6.9,26.5c7.9,1.2,14.1-0.1,15.9-3.9L90,16.2z" fill="#62345B"/></g></g></g><g><path d="M60.7,78.1c-0.3,0-0.6-0.1-0.9-0.2c-1-0.5-1.4-1.7-0.9-2.7l19.6-38.6c0.5-1,1.7-1.4,2.7-0.9   c1,0.5,1.4,1.7,0.9,2.7L62.4,77C62.1,77.7,61.4,78.1,60.7,78.1z" fill="#62345B"/></g></svg>