<?xml version="1.0" ?><!DOCTYPE svg  PUBLIC '-//W3C//DTD SVG 1.1//EN'  'http://www.w3.org/Graphics/SVG/1.1/DTD/svg11.dtd'><svg enable-background="new 0 0 128 128" id="Слой_1" version="1.1" viewBox="0 0 128 128" xml:space="preserve" xmlns="http://www.w3.org/2000/svg" xmlns:xlink="http://www.w3.org/1999/xlink"><g><g opacity="0.5"><g><g><circle cx="53.5" cy="52.7" fill="#E5DC35" r="19"/></g><g><path d="M53.5,73.7c-11.6,0-21-9.4-21-21s9.4-21,21-21s21,9.4,21,21S65.1,73.7,53.5,73.7z M53.5,35.7      c-9.4,0-17,7.6-17,17s7.6,17,17,17s17-7.6,17-17S62.9,35.7,53.5,35.7z" fill="#62345B"/></g><g><g opacity="0.7"><path d="M51.8,45.2l-2.1-5.1c-0.5-1.2,0.3-2.4,1.5-2.6c1.6-0.2,3.2-0.2,4.7,0c1.2,0.2,2,1.5,1.5,2.6l-2.1,5.1       C54.6,46.8,52.4,46.8,51.8,45.2z" fill="#FFFFFF"/></g><g opacity="0.7"><path d="M57.6,46.2l2.1-5.1c0.5-1.1,1.9-1.5,2.9-0.8c1.3,1,2.4,2.1,3.4,3.4c0.7,1,0.3,2.4-0.8,2.9l-5.1,2.1       C58.5,49.3,57,47.7,57.6,46.2z" fill="#FFFFFF"/></g><g opacity="0.7"><path d="M61.1,51l5.1-2.1c1.2-0.5,2.4,0.3,2.6,1.5c0.2,1.6,0.2,3.2,0,4.7c-0.2,1.2-1.5,2-2.6,1.5l-5.1-2.1       C59.5,53.9,59.5,51.6,61.1,51z" fill="#FFFFFF"/></g><g opacity="0.7"><path d="M60.1,56.8l5.1,2.1c1.1,0.5,1.5,1.9,0.8,2.9c-1,1.3-2.1,2.4-3.4,3.4c-1,0.7-2.4,0.3-2.9-0.8l-2.1-5.1       C57,57.7,58.5,56.2,60.1,56.8z" fill="#FFFFFF"/></g><g opacity="0.7"><path d="M55.3,60.3l2.1,5.1c0.5,1.2-0.3,2.4-1.5,2.6c-1.6,0.2-3.2,0.2-4.7,0c-1.2-0.2-2-1.5-1.5-2.6l2.1-5.1       C52.4,58.7,54.6,58.7,55.3,60.3z" fill="#FFFFFF"/></g><g opacity="0.7"><path d="M49.4,59.3l-2.1,5.1c-0.5,1.1-1.9,1.5-2.9,0.8c-1.3-1-2.4-2.1-3.4-3.4c-0.7-1-0.3-2.4,0.8-2.9l5.1-2.1       C48.5,56.2,50.1,57.7,49.4,59.3z" fill="#FFFFFF"/></g><g opacity="0.7"><path d="M46,54.5l-5.1,2.1c-1.2,0.5-2.4-0.3-2.6-1.5c-0.2-1.6-0.2-3.2,0-4.7c0.2-1.2,1.5-2,2.6-1.5L46,51       C47.6,51.6,47.6,53.9,46,54.5z" fill="#FFFFFF"/></g><g opacity="0.7"><path d="M47,48.7l-5.1-2.1c-1.1-0.5-1.5-1.9-0.8-2.9c1-1.3,2.1-2.4,3.4-3.4c1-0.7,2.4-0.3,2.9,0.8l2.1,5.1       C50.1,47.7,48.5,49.3,47,48.7z" fill="#FFFFFF"/></g></g></g><g><g><path d="M44.3,86.4c-1.1,0-2-0.9-2-2V52.7c0-1.1,0.9-2,2-2s2,0.9,2,2v31.7C46.3,85.5,45.4,86.4,44.3,86.4z" fill="#62345B"/></g><g><path d="M35.4,108.2h-1.2c-10.6,0-19.2-8.6-19.2-19.2v0c0-3,0.7-5.9,2-8.6l0,0c3.7-7.4,3.7-16.1,0-23.5l-2-4.1      h39.6l-2,4.1c-3.7,7.4-3.7,16.1,0,23.5l0,0c1.3,2.7,2,5.6,2,8.6v0C54.6,99.6,46,108.2,35.4,108.2z" fill="#F9BFC3"/></g><g opacity="0.6"><path d="M25.1,70.6C25.1,70.6,25,70.6,25.1,70.6c-1.2,0-2-1-2-2.1c0.2-5.5-1.2-10.4-4.1-14.6      c-0.6-0.9-0.4-2.2,0.5-2.8c0.9-0.6,2.2-0.4,2.8,0.5c3.4,4.9,5,10.6,4.8,17C27,69.7,26.2,70.6,25.1,70.6z" fill="#FFFFFF"/></g><g opacity="0.2"><g><path d="M52.6,80.4c-3.7-7.4-3.7-16.1,0-23.5l2-4.1h-7.9l-2,4.1c-3.7,7.4-3.7,16.1,0,23.5v0       c1.3,2.7,2,5.6,2,8.6v0c0,9.5-6.8,17.3-15.8,18.9c1.1,0.2,2.2,0.3,3.4,0.3h1.2c10.6,0,19.2-8.6,19.2-19.2v0       C54.6,86,53.9,83,52.6,80.4L52.6,80.4z" fill="#62345B"/></g></g><g><g opacity="0.7"><circle cx="28.1" cy="87.2" fill="#FFFFFF" r="2"/></g><g opacity="0.7"><circle cx="28.1" cy="95.1" fill="#FFFFFF" r="2"/></g><g opacity="0.7"><circle cx="36" cy="95.1" fill="#FFFFFF" r="2"/></g></g><g><path d="M35.4,110.2h-1.2C22.5,110.2,13,100.6,13,89c0-3.3,0.8-6.6,2.2-9.5c3.4-6.8,3.4-14.9,0-21.8l-2-4.1      c-0.3-0.6-0.3-1.4,0.1-1.9c0.4-0.6,1-0.9,1.7-0.9h39.6c0.7,0,1.3,0.4,1.7,0.9c0.4,0.6,0.4,1.3,0.1,1.9l-2,4.1      c-3.4,6.8-3.4,14.9,0,21.8c1.5,2.9,2.2,6.2,2.2,9.5C56.6,100.6,47.1,110.2,35.4,110.2z M18.2,54.7l0.6,1.2c4,7.9,4,17.4,0,25.3      c-1.2,2.4-1.8,5-1.8,7.7c0,9.5,7.7,17.2,17.2,17.2h1.2c9.5,0,17.2-7.7,17.2-17.2c0-2.7-0.6-5.3-1.8-7.7c-4-7.9-4-17.4,0-25.3      l0.6-1.2H18.2z" fill="#62345B"/></g><g><path d="M26.9,54.7c-0.8,0-1.6-0.5-1.9-1.4L17.5,31H4.7c-1.1,0-2-0.9-2-2s0.9-2,2-2H19c0.9,0,1.6,0.6,1.9,1.4      l7.9,23.7c0.3,1-0.2,2.2-1.3,2.5C27.3,54.7,27.1,54.7,26.9,54.7z" fill="#62345B"/></g></g><g><path d="M35.4,126c-1.1,0-2-0.9-2-2v-15.8c0-1.1,0.9-2,2-2s2,0.9,2,2V124C37.4,125.1,36.5,126,35.4,126z" fill="#62345B"/></g><g><path d="M50.6,126H19c-1.1,0-2-0.9-2-2s0.9-2,2-2h31.7c1.1,0,2,0.9,2,2S51.7,126,50.6,126z" fill="#62345B"/></g></g><g><g><polygon fill="#F1F9FE" points="78.1,93.5 118.8,42.6 37.4,42.6    "/></g><g><polygon fill="#35B1C2" points="110.3,53.2 45.9,53.2 78.1,93.5    "/></g><g><path d="M78.1,126c-1.1,0-2-0.9-2-2V93.5c0-1.1,0.9-2,2-2s2,0.9,2,2V124C80.1,125.1,79.2,126,78.1,126z" fill="#62345B"/></g><g><path d="M98.4,126H57.7c-1.1,0-2-0.9-2-2s0.9-2,2-2h40.7c1.1,0,2,0.9,2,2S99.5,126,98.4,126z" fill="#62345B"/></g><g><path d="M78.1,95.5c-0.6,0-1.2-0.3-1.6-0.8L35.8,43.9c-0.5-0.6-0.6-1.4-0.2-2.1c0.3-0.7,1-1.1,1.8-1.1h81.4     c0.8,0,1.5,0.4,1.8,1.1c0.3,0.7,0.2,1.5-0.2,2.1L79.7,94.7C79.3,95.2,78.7,95.5,78.1,95.5z M41.6,44.6l36.5,45.6l36.5-45.6H41.6z     " fill="#62345B"/></g><g><g><path d="M123.3,36.4L104,15.2L75.3,14c-2.6,5.5,6.1,15,19.3,21.2S120.7,41.9,123.3,36.4z" fill="#F69286"/></g><g><path d="M114.1,42.2C114.1,42.2,114.1,42.2,114.1,42.2c-5.8,0-13.2-1.9-20.3-5.2c-14.7-6.9-23.4-17.1-20.3-23.8      c0.3-0.7,1.1-1.2,1.9-1.2l28.6,1.2c0.5,0,1,0.3,1.4,0.7L124.8,35c0.5,0.6,0.7,1.5,0.3,2.2C123.6,40.4,119.7,42.2,114.1,42.2z       M76.9,16.1c-0.2,4.9,9,12.8,18.6,17.3c6.6,3.1,13.3,4.8,18.6,4.8c3.1,0,5.4-0.6,6.6-1.7l-17.6-19.3L76.9,16.1z" fill="#62345B"/></g><g opacity="0.3"><g><path d="M103.3,16.4l6.1,23.4c7,1.1,12.4,0,14-3.4L103.3,16.4z" fill="#62345B"/></g></g></g><g opacity="0.5"><path d="M80.3,77.6c-0.2,0-0.5,0-0.7-0.1c-1-0.4-1.5-1.6-1.1-2.6l12.9-32.9c0.4-1,1.6-1.5,2.6-1.1     c1,0.4,1.5,1.6,1.1,2.6L82.1,76.3C81.8,77.1,81.1,77.6,80.3,77.6z" fill="#62345B"/></g><g><path d="M93.2,44.6c-0.2,0-0.5,0-0.7-0.1c-1-0.4-1.5-1.6-1.1-2.6L94,35c0.4-1,1.6-1.5,2.6-1.1     c1,0.4,1.5,1.6,1.1,2.6l-2.7,6.9C94.7,44.2,94,44.6,93.2,44.6z" fill="#62345B"/></g></g></g></svg>