<?xml version="1.0" ?><!DOCTYPE svg  PUBLIC '-//W3C//DTD SVG 1.1//EN'  'http://www.w3.org/Graphics/SVG/1.1/DTD/svg11.dtd'><svg enable-background="new 0 0 128 128" id="Слой_1" version="1.1" viewBox="0 0 128 128" xml:space="preserve" xmlns="http://www.w3.org/2000/svg" xmlns:xlink="http://www.w3.org/1999/xlink"><g><path d="M86.5,34.3L86.5,34.3c-5.9,5.9-15.4,5.9-21.2,0l-3.5-3.5l0,0c5.9-5.9,15.4-5.9,21.2,0L86.5,34.3z" fill="#85C559"/></g><g><polygon fill="#F1F9FE" points="62.4,93.2 100.8,45.1 23.9,45.1  "/></g><g><polygon fill="#E5DC35" points="92.8,55.1 31.9,55.1 62.4,93.2  "/></g><g><path d="M62.4,124c-1.1,0-2-0.9-2-2V93.2c0-1.1,0.9-2,2-2s2,0.9,2,2V122C64.4,123.1,63.5,124,62.4,124z" fill="#62345B"/></g><g><path d="M81.6,124H43.2c-1.1,0-2-0.9-2-2s0.9-2,2-2h38.5c1.1,0,2,0.9,2,2S82.7,124,81.6,124z" fill="#62345B"/></g><g><path d="M62.4,95.2c-0.6,0-1.2-0.3-1.6-0.8L22.4,46.3c-0.5-0.6-0.6-1.4-0.2-2.1s1-1.1,1.8-1.1h76.9   c0.8,0,1.5,0.4,1.8,1.1s0.2,1.5-0.2,2.1L63.9,94.4C63.6,94.9,63,95.2,62.4,95.2z M28.1,47.1L62.4,90l34.3-42.9H28.1z" fill="#62345B"/></g><g><g><circle cx="61.9" cy="66.2" fill="#F26D6F" r="10"/></g><g><path d="M61.9,78.2c-6.6,0-12-5.4-12-12s5.4-12,12-12s12,5.4,12,12S68.5,78.2,61.9,78.2z M61.9,58.2    c-4.4,0-8,3.6-8,8s3.6,8,8,8c4.4,0,8-3.6,8-8S66.3,58.2,61.9,58.2z" fill="#62345B"/></g><g opacity="0.2"><g><path d="M61.9,56.2c-0.7,0-1.4,0.1-2,0.2c4.6,0.9,8,5,8,9.8c0,4.8-3.4,8.9-8,9.8c0.6,0.1,1.3,0.2,2,0.2     c5.5,0,10-4.5,10-10C71.9,60.7,67.4,56.2,61.9,56.2z" fill="#62345B"/></g></g><g><path d="M65.9,59.2c-0.3,0-0.6-0.1-0.8-0.2c-1-0.5-1.5-1.6-1-2.6l0.8-1.8C71,41.2,82.4,30.9,96.3,26.3    c1.1-0.4,2.2,0.2,2.5,1.3c0.3,1-0.2,2.2-1.3,2.5c-12.8,4.3-23.4,13.8-29,26.1L67.7,58C67.4,58.8,66.7,59.2,65.9,59.2z" fill="#62345B"/></g><g><path d="M72.9,40.6c-4.5,0-8.8-1.8-12-5l-3.5-3.5c-0.4-0.4-0.6-0.9-0.6-1.4s0.2-1,0.6-1.4c3.2-3.2,7.5-5,12-5    s8.8,1.8,12,5l3.5,3.5c0.8,0.8,0.8,2,0,2.8C81.7,38.9,77.4,40.6,72.9,40.6z M61.7,30.8l2,2c2.5,2.5,5.7,3.8,9.2,3.8    c2.8,0,5.5-0.9,7.7-2.5l-2-2c-2.5-2.5-5.7-3.8-9.2-3.8C66.6,28.3,63.9,29.2,61.7,30.8z" fill="#62345B"/></g></g></svg>