<?xml version="1.0" ?><!DOCTYPE svg  PUBLIC '-//W3C//DTD SVG 1.1//EN'  'http://www.w3.org/Graphics/SVG/1.1/DTD/svg11.dtd'><svg enable-background="new 0 0 128 128" id="Слой_1" version="1.1" viewBox="0 0 128 128" xml:space="preserve" xmlns="http://www.w3.org/2000/svg" xmlns:xlink="http://www.w3.org/1999/xlink"><g><g opacity="0.5"><g><g><g><path d="M71.2,124H30.8c-3.6,0-6.5-2.9-6.5-6.5V53.5c0-8,2-11.8,5.4-14l8.7-5.8c3.4-2.3,5.4-6.1,5.4-10.1v-9.1       h-2.6V4h19.6v10.4h-2.6v9.1c0,4.1,2,7.9,5.4,10.1l8.7,5.8c3.4,2.3,5.4,6.1,5.4,14v63.9C77.8,121.1,74.8,124,71.2,124z" fill="#27A249"/></g><g><rect fill="#24763B" height="10.4" width="19.6" x="41.2" y="4"/></g><g><rect fill="#FFFFFF" height="3.9" width="19.6" x="41.2" y="4"/></g><g><path d="M71.2,124H30.8c-3.6,0-6.5-2.9-6.5-6.5V53.5c0-8,2-11.8,5.4-14l8.7-5.8h25.2l8.7,5.8       c3.4,2.3,5.4,6.1,5.4,14v63.9C77.8,121.1,74.8,124,71.2,124z" fill="#2B4C26"/></g><g><path d="M25.6,114.9h50.9V58.8c0-7.2-5.8-13-13-13H38.6c-7.2,0-13,5.8-13,13V114.9z" fill="#FFFFFF"/></g><g><path d="M72.7,111.2H29.3V58.8c0-5.1,4.2-9.3,9.3-9.3h24.8c5.1,0,9.3,4.2,9.3,9.3V111.2z M32.3,108.2h37.4V58.8       c0-3.5-2.8-6.3-6.3-6.3H38.6c-3.5,0-6.3,2.8-6.3,6.3V108.2z" fill="#27A249"/></g><g opacity="0.3"><g><path d="M72.4,39.5l-8.7-5.8c-3.4-2.3-5.4-6.1-5.4-10.1v-9.1h2.6V4h-5.2v10.4h0v9.1c0,4.1,2,10.5,5.4,12.7        l3.5,3.2c3.4,2.3,4.1,6.1,4.1,14V124h2.6c3.6,0,6.5-2.9,6.5-6.5V53.5C77.8,45.6,75.7,41.8,72.4,39.5z" fill="#62345B"/></g></g><g><path d="M71.2,126H30.8c-4.7,0-8.5-3.8-8.5-8.5V53.5c0-7.9,1.9-12.8,6.3-15.7l8.7-5.8c2.8-1.9,4.5-5,4.5-8.5       v-7.1h-0.6c-1.1,0-2-0.9-2-2V4c0-1.1,0.9-2,2-2h19.6c1.1,0,2,0.9,2,2v10.4c0,1.1-0.9,2-2,2h-0.6v7.1c0,3.4,1.7,6.6,4.5,8.5       l8.7,5.8c4.4,2.9,6.3,7.7,6.3,15.7v63.9C79.8,122.2,75.9,126,71.2,126z M43.2,12.4h0.6c1.1,0,2,0.9,2,2v9.1       c0,4.7-2.4,9.1-6.3,11.8l-8.7,5.8c-2.2,1.5-4.5,4.1-4.5,12.4v63.9c0,2.5,2,4.5,4.5,4.5h40.4c2.5,0,4.5-2,4.5-4.5V53.5       c0-8.2-2.3-10.9-4.5-12.4l-8.7-5.8c-3.9-2.6-6.3-7-6.3-11.8v-9.1c0-1.1,0.9-2,2-2h0.6V6H43.2V12.4z" fill="#62345B"/></g><g><path d="M60.8,16.4H41.2c-1.1,0-2-0.9-2-2s0.9-2,2-2h19.6c1.1,0,2,0.9,2,2S61.9,16.4,60.8,16.4z" fill="#62345B"/></g></g></g><g><circle cx="51" cy="65.1" fill="#934441" r="9.8"/></g><g><rect fill="#F16570" height="11.7" width="35.2" x="33.4" y="79.6"/></g></g><g><g><g><polygon fill="#F1F9FE" points="97.7,124 73.7,124 67.7,54 103.7,54     "/></g><g><path d="M85.7,104L85.7,104c-8.3,0-15-6.7-15-15l-2-25h34l-2,25C100.7,97.3,94,104,85.7,104z" fill="#D8D7D1"/></g><g opacity="0.8"><path d="M78.7,96c-1.1,0-1.9-0.8-2-1.9l-2-40c-0.1-1.1,0.8-2,1.9-2.1c1.1,0,2,0.8,2.1,1.9l2,40      c0.1,1.1-0.8,2-1.9,2.1C78.8,96,78.7,96,78.7,96z" fill="#FFFFFF"/></g><g opacity="0.2"><g><polygon fill="#62345B" points="95.7,54 92.7,124 97.7,124 103.7,54      "/></g></g><g><path d="M97.7,126h-24c-1,0-1.9-0.8-2-1.8l-6-70c0-0.6,0.1-1.1,0.5-1.5s0.9-0.6,1.5-0.6h36      c0.6,0,1.1,0.2,1.5,0.6s0.6,1,0.5,1.5l-6,70C99.6,125.2,98.8,126,97.7,126z M75.6,122h20.3l5.7-66H69.9L75.6,122z" fill="#62345B"/></g></g></g><g><g><g><polygon fill="#F1F9FE" points="97.7,124 73.7,124 67.7,54 103.7,54     "/></g><g><path d="M85.7,104L85.7,104c-8.3,0-15-6.7-15-15l-2-25h34l-2,25C100.7,97.3,94,104,85.7,104z" fill="#2B4C26"/></g><g opacity="0.8"><path d="M78.7,96c-1.1,0-1.9-0.8-2-1.9l-2-40c-0.1-1.1,0.8-2,1.9-2.1c1.1,0,2,0.8,2.1,1.9l2,40      c0.1,1.1-0.8,2-1.9,2.1C78.8,96,78.7,96,78.7,96z" fill="#FFFFFF"/></g><g opacity="0.2"><g><polygon fill="#62345B" points="95.7,54 92.7,124 97.7,124 103.7,54      "/></g></g><g><path d="M97.7,126h-24c-1,0-1.9-0.8-2-1.8l-6-70c0-0.6,0.1-1.1,0.5-1.5s0.9-0.6,1.5-0.6h36      c0.6,0,1.1,0.2,1.5,0.6s0.6,1,0.5,1.5l-6,70C99.6,125.2,98.8,126,97.7,126z M75.6,122h20.3l5.7-66H69.9L75.6,122z" fill="#62345B"/></g></g></g></g></svg>