<?xml version="1.0" ?><!DOCTYPE svg  PUBLIC '-//W3C//DTD SVG 1.1//EN'  'http://www.w3.org/Graphics/SVG/1.1/DTD/svg11.dtd'><svg enable-background="new 0 0 128 128" id="Слой_1" version="1.1" viewBox="0 0 128 128" xml:space="preserve" xmlns="http://www.w3.org/2000/svg" xmlns:xlink="http://www.w3.org/1999/xlink"><g><g><path d="M95.1,40l-4,68.7c-0.2,2.9-2.6,5.2-5.5,5.2H46.8c-3,0-5.4-2.3-5.5-5.3l-4-77.7h44.1" fill="#A05D53"/></g><g><polyline fill="#FFFFFF" points="95.1,31.5 95.1,42.3 37.2,42.3 37.2,31.1 81.3,31.1   "/></g><g opacity="0.2"><g><path d="M95.5,31.1H67.1l6.8,4.4c4.3,2.8,6.8,7.7,6.4,12.9L76.6,114h9c2.9,0,5.4-2.3,5.5-5.2l4-68.7L95.5,31.1z" fill="#62345B"/></g></g><g><path d="M85.5,116H46.8c-4,0-7.3-3.1-7.5-7.2l-4-77.7c0-0.5,0.2-1.1,0.5-1.5s0.9-0.6,1.5-0.6h44.1c1.1,0,2,0.9,2,2    s-0.9,2-2,2h-42l3.9,75.6c0.1,1.9,1.7,3.4,3.6,3.4h38.8c1.9,0,3.4-1.5,3.5-3.4l4-68.7c0.1-1.1,1-1.9,2.1-1.9    c1.1,0.1,1.9,1,1.9,2.1l-4,68.7C92.9,112.9,89.5,116,85.5,116z" fill="#62345B"/></g><g opacity="0.6"><path d="M48.2,74.5c-1.1,0-1.9-0.8-2-1.9l-2.1-41.5c-0.1-1.1,0.8-2,1.9-2.1c1.1,0,2,0.8,2.1,1.9l2.1,41.5    c0.1,1.1-0.8,2-1.9,2.1C48.3,74.5,48.3,74.5,48.2,74.5z" fill="#FFFFFF"/></g><g><path d="M91,14H37c-4.7,0-8.5,3.8-8.5,8.5v0c0,4.7,3.8,8.5,8.5,8.5h49.1c2.5,0,4.5,2,4.5,4.5v0    c0,2.5,2,4.5,4.5,4.5h0c2.5,0,4.5-2,4.5-4.5v-13C99.5,17.8,95.7,14,91,14z" fill="#FFFFFF"/></g><g><path d="M95.1,42c-3.6,0-6.5-2.9-6.5-6.5c0-1.4-1.1-2.5-2.5-2.5H37c-5.8,0-10.5-4.7-10.5-10.5S31.2,12,37,12h54    c5.8,0,10.5,4.7,10.5,10.5v13C101.5,39.1,98.6,42,95.1,42z M37,16c-3.6,0-6.5,2.9-6.5,6.5s2.9,6.5,6.5,6.5h49.1    c3.6,0,6.5,2.9,6.5,6.5c0,1.4,1.1,2.5,2.5,2.5c1.4,0,2.5-1.1,2.5-2.5v-13c0-3.6-2.9-6.5-6.5-6.5H37z" fill="#62345B"/></g></g></svg>