<?xml version="1.0" ?><!DOCTYPE svg  PUBLIC '-//W3C//DTD SVG 1.1//EN'  'http://www.w3.org/Graphics/SVG/1.1/DTD/svg11.dtd'><svg enable-background="new 0 0 128 128" id="Слой_1" version="1.1" viewBox="0 0 128 128" xml:space="preserve" xmlns="http://www.w3.org/2000/svg" xmlns:xlink="http://www.w3.org/1999/xlink"><g><g><path d="M88.8,37.7v52.2c0,10.6,10.6,19.1,0,19.1H29.4c-10.6,0,0-8.6,0-19.1V37.2h44.7" fill="#E07044"/></g><g><polyline fill="#FFFFFF" points="88.8,37.7 88.8,49.1 29.4,49.1 29.4,37.2 74.1,37.2   "/></g><g opacity="0.2"><g><path d="M88.8,89.9V37.7l-14.7-0.5H62.8l10.9,0.5v52.2c0,10.6,10.6,19.1,0,19.1h15.2     C99.4,109,88.8,100.4,88.8,89.9z" fill="#62345B"/></g></g><g><path d="M88.8,111H29.4c-2,0-4.7-0.2-6-2.2c-1.5-2.3-0.2-5.2,1.2-8.5c1.3-3.1,2.8-6.6,2.8-10.4V37.2    c0-1.1,0.9-2,2-2h44.7c1.1,0,2,0.9,2,2s-0.9,2-2,2H31.4v50.7c0,4.6-1.8,8.7-3.2,12c-0.7,1.6-1.8,4.1-1.5,4.8v0    c0,0,0.5,0.4,2.7,0.4h59.4c2.2,0,2.7-0.4,2.7-0.4c0.2-0.6-0.8-3.1-1.5-4.7c-1.4-3.3-3.2-7.4-3.2-12V46.8c0-1.1,0.9-2,2-2    s2,0.9,2,2v43.1c0,3.8,1.5,7.3,2.8,10.4c1.4,3.4,2.7,6.3,1.2,8.5C93.5,110.8,90.8,111,88.8,111z" fill="#62345B"/></g><g><g><path d="M43.7,81.4c-1.1,0-2-0.9-2-2V37.2c0-1.1,0.9-2,2-2s2,0.9,2,2v42.3C45.7,80.6,44.9,81.4,43.7,81.4z" fill="#62345B"/></g><g><path d="M59.1,81.4c-1.1,0-2-0.9-2-2V37.2c0-1.1,0.9-2,2-2s2,0.9,2,2v42.3C61.1,80.6,60.2,81.4,59.1,81.4z" fill="#62345B"/></g><g><path d="M74.4,81.4c-1.1,0-2-0.9-2-2V37.2c0-1.1,0.9-2,2-2s2,0.9,2,2v42.3C76.4,80.6,75.5,81.4,74.4,81.4z" fill="#62345B"/></g></g><g><path d="M84.5,19H29.2c-5,0-9.1,4.1-9.1,9.1v0c0,5,4.1,9.1,9.1,9.1h50.1c2.6,0,4.8,2.1,4.8,4.8v0    c0,2.6,2.1,4.8,4.8,4.8h0c2.6,0,4.8-2.1,4.8-4.8V28.1C93.6,23.1,89.5,19,84.5,19z" fill="#FFFFFF"/></g><g><path d="M88.8,48.8c-3.7,0-6.8-3-6.8-6.8c0-1.5-1.2-2.8-2.8-2.8H29.2c-6.1,0-11.1-5-11.1-11.1S23,17,29.2,17h55.3    c6.1,0,11.1,5,11.1,11.1V42C95.6,45.7,92.5,48.8,88.8,48.8z M29.2,21c-3.9,0-7.1,3.2-7.1,7.1s3.2,7.1,7.1,7.1h50.1    c3.7,0,6.8,3,6.8,6.8c0,1.5,1.2,2.8,2.8,2.8c1.5,0,2.8-1.2,2.8-2.8V28.1c0-3.9-3.2-7.1-7.1-7.1H29.2z" fill="#62345B"/></g><g><path d="M98.4,91.9h-9.6c-1.1,0-2-0.9-2-2s0.9-2,2-2h9.6c4.2,0,7.6-3.4,7.6-7.6v-24c0-4.2-3.4-7.6-7.6-7.6h-9.6    c-1.1,0-2-0.9-2-2s0.9-2,2-2h9.6c6.4,0,11.6,5.2,11.6,11.6v24C109.9,86.7,104.7,91.9,98.4,91.9z" fill="#62345B"/></g></g></svg>